<svg width="363" height="324" viewBox="0 0 363 324" fill="none" xmlns="http://www.w3.org/2000/svg">
<rect width="363" height="324" fill="white"/>
<path d="M201 113L195.667 142.571L177.058 149L161 142.571L162.633 134.954H169.467L168.8 138.216L178.5 141.784L189.675 138.216L191.242 130.413H163.458L164.792 123.824H192.6L193.475 119.589H165.692L167.05 113H201Z" fill="black"/>
<path d="M170.207 188.633C170.038 190.365 169.758 191.764 169.367 192.832C169.107 193.522 168.104 194.141 166.359 194.688C164.458 195.273 162.271 195.566 159.797 195.566C155.708 195.566 152.303 194.349 149.582 191.914C146.822 189.44 145.441 186.27 145.441 182.402C145.441 178.457 146.867 175.176 149.719 172.559C152.466 170.033 155.786 168.77 159.68 168.77C162.44 168.77 164.758 169.102 166.633 169.766C168.299 170.352 169.165 170.898 169.23 171.406C169.374 172.396 169.445 174.004 169.445 176.23C169.445 176.595 169.113 176.81 168.449 176.875C167.941 176.927 167.629 176.771 167.512 176.406C166.822 174.18 165.897 172.637 164.738 171.777C163.592 170.918 161.867 170.488 159.562 170.488C156.672 170.488 154.315 171.445 152.492 173.359C150.513 175.443 149.523 178.294 149.523 181.914C149.523 185.508 150.565 188.411 152.648 190.625C154.68 192.799 157.277 193.887 160.441 193.887C162.499 193.887 164.12 193.444 165.305 192.559C166.438 191.712 167.362 190.326 168.078 188.398C168.286 187.839 168.755 187.637 169.484 187.793C170.005 187.91 170.246 188.19 170.207 188.633ZM193 188.203C193 190.404 192.193 192.168 190.578 193.496C188.898 194.876 186.6 195.566 183.684 195.566C179.842 195.566 177.59 194.857 176.926 193.438C176.522 192.578 176.118 191.484 175.715 190.156C175.546 189.544 175.669 189.147 176.086 188.965C176.607 188.73 177.017 188.835 177.316 189.277C178.423 190.918 179.536 192.083 180.656 192.773C181.737 193.438 183 193.77 184.445 193.77C188.065 193.77 189.875 192.324 189.875 189.434C189.875 188.301 189.478 187.337 188.684 186.543C187.915 185.801 186.327 184.779 183.918 183.477C180.871 181.836 178.866 180.547 177.902 179.609C176.717 178.451 176.125 177.018 176.125 175.312C176.125 173.503 176.88 171.96 178.391 170.684C179.914 169.408 181.854 168.77 184.211 168.77C185.878 168.77 187.499 168.978 189.074 169.395C190.285 169.72 190.969 170.137 191.125 170.645C191.451 171.699 191.665 173.001 191.77 174.551C191.796 175.111 191.607 175.423 191.203 175.488C190.695 175.566 190.337 175.391 190.129 174.961C189.322 173.333 188.404 172.188 187.375 171.523C186.424 170.911 185.181 170.605 183.645 170.605C182.277 170.605 181.197 170.924 180.402 171.562C179.608 172.201 179.211 173.105 179.211 174.277C179.211 175.371 179.602 176.315 180.383 177.109C181.125 177.852 182.492 178.724 184.484 179.727C187.557 181.263 189.673 182.565 190.832 183.633C192.277 184.948 193 186.471 193 188.203ZM216.242 188.203C216.242 190.404 215.435 192.168 213.82 193.496C212.141 194.876 209.842 195.566 206.926 195.566C203.085 195.566 200.832 194.857 200.168 193.438C199.764 192.578 199.361 191.484 198.957 190.156C198.788 189.544 198.911 189.147 199.328 188.965C199.849 188.73 200.259 188.835 200.559 189.277C201.665 190.918 202.779 192.083 203.898 192.773C204.979 193.438 206.242 193.77 207.688 193.77C211.307 193.77 213.117 192.324 213.117 189.434C213.117 188.301 212.72 187.337 211.926 186.543C211.158 185.801 209.569 184.779 207.16 183.477C204.113 181.836 202.108 180.547 201.145 179.609C199.96 178.451 199.367 177.018 199.367 175.312C199.367 173.503 200.122 171.96 201.633 170.684C203.156 169.408 205.096 168.77 207.453 168.77C209.12 168.77 210.741 168.978 212.316 169.395C213.527 169.72 214.211 170.137 214.367 170.645C214.693 171.699 214.908 173.001 215.012 174.551C215.038 175.111 214.849 175.423 214.445 175.488C213.938 175.566 213.579 175.391 213.371 174.961C212.564 173.333 211.646 172.188 210.617 171.523C209.667 170.911 208.423 170.605 206.887 170.605C205.52 170.605 204.439 170.924 203.645 171.562C202.85 172.201 202.453 173.105 202.453 174.277C202.453 175.371 202.844 176.315 203.625 177.109C204.367 177.852 205.734 178.724 207.727 179.727C210.799 181.263 212.915 182.565 214.074 183.633C215.52 184.948 216.242 186.471 216.242 188.203Z" fill="black"/>
</svg>
