<svg id="Layer_1" data-name="Layer 1" xmlns="http://www.w3.org/2000/svg" viewBox="0 0 143.24 36.6"><defs><style>.cls-1{fill:none;stroke:#ffffff;stroke-linecap:round;stroke-linejoin:round;stroke-width:2.22px;}.cls-2{fill:#ffffff;fill-rule:evenodd;}.cls-3{fill:#ffffff;}.cls-4{fill:#ffffff;}</style></defs><path className="cls-1" d="M300.54,159.24s-16.38,10.68-30.38-4.84" transform="translate(-267.63 -127.33)"/><path className="cls-2" d="M307.69,154.25a2.67,2.67,0,1,1-3.73-.61,2.67,2.67,0,0,1,3.73.61" transform="translate(-267.63 -127.33)"/><path className="cls-3" d="M404.26,133.43h6.56v2h-6.56Zm5.12,15.28a3.33,3.33,0,0,1-2.7-1,4.58,4.58,0,0,1-.86-3V129h2.11v15.71a2.34,2.34,0,0,0,.44,1.51,1.62,1.62,0,0,0,1.31.52h1.14v2ZM397,133.43h7v1.81h-7Zm1.61-2.07a4.16,4.16,0,0,1,1-3,3.63,3.63,0,0,1,2.8-1.06H404v2h-1.55a1.58,1.58,0,0,0-1.29.53,2.28,2.28,0,0,0-.45,1.5v17.3h-2.11Zm-7.42,15.53a2.17,2.17,0,0,0,1.67-.63,2.5,2.5,0,0,0,.6-1.79v-7a2.43,2.43,0,0,0-.6-1.75,2.2,2.2,0,0,0-1.67-.63,2.15,2.15,0,0,0-1.66.63,2.47,2.47,0,0,0-.58,1.75v7a2.54,2.54,0,0,0,.58,1.79A2.15,2.15,0,0,0,391.17,146.89Zm0,2a5,5,0,0,1-2.36-.52,3.45,3.45,0,0,1-1.49-1.51,5.2,5.2,0,0,1-.51-2.39v-6.92a5,5,0,0,1,.51-2.35,3.44,3.44,0,0,1,1.49-1.48,5.62,5.62,0,0,1,4.72,0,3.44,3.44,0,0,1,1.49,1.48,4.91,4.91,0,0,1,.52,2.35v7a5,5,0,0,1-.52,2.37,3.43,3.43,0,0,1-1.49,1.5A5,5,0,0,1,391.18,148.85Zm-10.69,0a5.87,5.87,0,0,1-2.56-.5,3.46,3.46,0,0,1-1.53-1.52,5.59,5.59,0,0,1-.51-2.53h1.95a2.88,2.88,0,0,0,.66,2.06,2.63,2.63,0,0,0,2,.69,2.34,2.34,0,0,0,2.65-2.64,1.94,1.94,0,0,0-.28-1.09,2.13,2.13,0,0,0-.74-.72,7.33,7.33,0,0,0-1.17-.5l-.22-.07-.22-.06-.16-.05-.15,0a15,15,0,0,1-2.14-.79,3.61,3.61,0,0,1-1.4-1.25,4,4,0,0,1-.58-2.3,5.53,5.53,0,0,1,.48-2.44,3.14,3.14,0,0,1,1.43-1.45,5.12,5.12,0,0,1,2.38-.49,5.41,5.41,0,0,1,2.39.47,3.08,3.08,0,0,1,1.43,1.42,5.16,5.16,0,0,1,.48,2.36h-1.95a2.57,2.57,0,0,0-.59-1.84,2.34,2.34,0,0,0-1.76-.6,2.27,2.27,0,0,0-1.75.63,2.69,2.69,0,0,0-.59,1.89,2.09,2.09,0,0,0,.36,1.26,2.41,2.41,0,0,0,.93.77,8.68,8.68,0,0,0,1.45.53l.09,0,.1,0,.07,0h.06a13.13,13.13,0,0,1,2.08.74,3.35,3.35,0,0,1,1.36,1.24,4.11,4.11,0,0,1,.56,2.31,5.5,5.5,0,0,1-.5,2.48,3.28,3.28,0,0,1-1.54,1.47A5.84,5.84,0,0,1,380.49,148.85Zm-10.85-2a2.21,2.21,0,0,0,1.68-.63,2.54,2.54,0,0,0,.59-1.79v-7a2.43,2.43,0,0,0-.6-1.75,2.2,2.2,0,0,0-1.67-.63,2.14,2.14,0,0,0-1.65.63,2.47,2.47,0,0,0-.59,1.75v7a2.54,2.54,0,0,0,.59,1.79A2.14,2.14,0,0,0,369.64,146.89Zm0,2a4.93,4.93,0,0,1-2.36-.52,3.47,3.47,0,0,1-1.5-1.51,5.2,5.2,0,0,1-.51-2.39v-6.92a5,5,0,0,1,.51-2.35,3.46,3.46,0,0,1,1.5-1.48,5.59,5.59,0,0,1,4.71,0,3.41,3.41,0,0,1,1.5,1.48,5,5,0,0,1,.51,2.35v7a5.12,5.12,0,0,1-.51,2.37,3.4,3.4,0,0,1-1.5,1.5A5,5,0,0,1,369.66,148.85Zm-12.09-15.42h7v1.81h-7Zm1.61-2.07a4.16,4.16,0,0,1,1-3,3.65,3.65,0,0,1,2.81-1.06h1.61v2H363a1.58,1.58,0,0,0-1.29.53,2.22,2.22,0,0,0-.46,1.5v17.3h-2.11Zm-5.44,6.54a3,3,0,0,0-.63-2.09,2.5,2.5,0,0,0-1.91-.68,2.31,2.31,0,0,0-1.9.76,3.55,3.55,0,0,0-.63,2.3l-.31-2.2a4.58,4.58,0,0,1,1.44-2.12,3.44,3.44,0,0,1,2.18-.71,3.55,3.55,0,0,1,2.91,1.18,5.56,5.56,0,0,1,1,3.56v10.73h-2.11Zm-7.18-4.47h2.11v15.2h-2.11Zm-3.06,15.2h-2.11v-21.3h2.11ZM331,138.7a2,2,0,0,0-.47-1.42,1.77,1.77,0,0,0-1.35-.5,1.64,1.64,0,0,0-1.29.5,2.05,2.05,0,0,0-.45,1.42l-.28-2.62a5.06,5.06,0,0,1,1.47-2.15,3.34,3.34,0,0,1,2.18-.75,3.6,3.6,0,0,1,3,1.31,5.79,5.79,0,0,1,1.05,3.71v10.43H331Zm-7.38-11.37h3.82v21.3h-3.82Zm-8.12,21.52a8.16,8.16,0,0,1-2.76-.43,5.26,5.26,0,0,1-2-1.26,4.68,4.68,0,0,1-1.14-2l3.11-1.61a3.16,3.16,0,0,0,1.23,1.35,3.45,3.45,0,0,0,1.8.47,2.57,2.57,0,0,0,1.42-.35,1,1,0,0,0,.53-.91,1.08,1.08,0,0,0-.31-.8,2,2,0,0,0-.79-.45c-.31-.1-.76-.21-1.34-.34l-.38-.1-.41-.09-.08,0-.11,0a12,12,0,0,1-2.14-.74,3.54,3.54,0,0,1-1.44-1.29,4.38,4.38,0,0,1-.58-2.39,4.67,4.67,0,0,1,.65-2.49,4.1,4.1,0,0,1,1.84-1.62,6.63,6.63,0,0,1,2.86-.57,7.24,7.24,0,0,1,2.5.41,5.06,5.06,0,0,1,1.88,1.2,4.47,4.47,0,0,1,1.08,1.91l-3.07,1.52a3,3,0,0,0-1-1.16,2.61,2.61,0,0,0-1.44-.41,2.35,2.35,0,0,0-1.31.32,1,1,0,0,0-.14,1.6,2.57,2.57,0,0,0,.84.44c.34.1.81.21,1.42.34l.12,0,.13,0h.05l.06,0a12.89,12.89,0,0,1,2.37.67,3.68,3.68,0,0,1,1.57,1.31,4.55,4.55,0,0,1,.65,2.62,4.76,4.76,0,0,1-.68,2.55,4.48,4.48,0,0,1-2,1.67A7.14,7.14,0,0,1,315.5,148.85Zm-13.35-8,2.79-2.21,4.87,10h-4.24Zm-4.92-13.55H301v21.3h-3.79Zm2.11,15.22,5.83-9.12h4l-9.45,13.84Zm-12.14,6.3a4.06,4.06,0,0,1-3.13-1.14,4.84,4.84,0,0,1-1.05-3.38,4.59,4.59,0,0,1,1.32-3.56,5.67,5.67,0,0,1,3.91-1.21h2.46l.21,3h-2.57A1.82,1.82,0,0,0,287,143a1.76,1.76,0,0,0-.46,1.34,1.25,1.25,0,0,0,.43,1,2,2,0,0,0,1.27.35,3.27,3.27,0,0,0,1.77-.39,1.31,1.31,0,0,0,.6-1.18l.28,1.74a2.79,2.79,0,0,1-.55,1.62,3.1,3.1,0,0,1-1.32,1A4.89,4.89,0,0,1,287.2,148.85Zm3.42-10.5a1.6,1.6,0,0,0-.51-1.27,2.11,2.11,0,0,0-1.45-.44,2.56,2.56,0,0,0-1.24.3,2.18,2.18,0,0,0-.88.85l-3-1.23a4.34,4.34,0,0,1,1.82-2.49,6,6,0,0,1,3.35-.89,6.66,6.66,0,0,1,3,.6,4.15,4.15,0,0,1,1.86,1.75,5.58,5.58,0,0,1,.65,2.76v10.34h-3.55Zm-23-11h3.83v21.3h-3.83ZM269.85,145h3.92a2.91,2.91,0,0,0,2.09-.71,2.62,2.62,0,0,0,.74-2v-8.59a2.58,2.58,0,0,0-.74-2,2.9,2.9,0,0,0-2.09-.7h-3.92v-3.68h4a8.13,8.13,0,0,1,3.58.73,5,5,0,0,1,2.27,2.12,6.8,6.8,0,0,1,.78,3.35v8.89a6.76,6.76,0,0,1-.76,3.3,5.17,5.17,0,0,1-2.26,2.15,7.84,7.84,0,0,1-3.62.76h-4Z" transform="translate(-267.63 -127.33)"/><path className="cls-4" d="M410.09,158.37h.79v.79h-.79Zm-1.71.85a1.37,1.37,0,0,1-.66-.15,1,1,0,0,1-.42-.42,1.38,1.38,0,0,1-.15-.65v0h.73v0a.65.65,0,0,0,.13.41.5.5,0,0,0,.37.14.45.45,0,0,0,.36-.14.53.53,0,0,0,.13-.39.4.4,0,0,0-.07-.26.55.55,0,0,0-.2-.17l-.33-.14h-.1a3.93,3.93,0,0,1-.5-.24,1.08,1.08,0,0,1-.34-.36,1.21,1.21,0,0,1-.13-.6,1.29,1.29,0,0,1,.14-.64,1,1,0,0,1,.39-.42,1.24,1.24,0,0,1,.62-.15,1.31,1.31,0,0,1,.61.14.91.91,0,0,1,.4.4,1.28,1.28,0,0,1,.14.61v0h-.74v0a.52.52,0,0,0-.11-.35.38.38,0,0,0-.3-.12.35.35,0,0,0-.31.14.61.61,0,0,0-.1.38.51.51,0,0,0,.07.28.63.63,0,0,0,.19.17l.31.12h.06a2.86,2.86,0,0,1,.54.22.84.84,0,0,1,.35.35,1.24,1.24,0,0,1,.15.66,1.29,1.29,0,0,1-.15.64,1,1,0,0,1-.43.41A1.33,1.33,0,0,1,408.38,159.22Zm-2.77,0a.76.76,0,0,1-.5-.19.94.94,0,0,1-.31-.51l.06-.63a1.11,1.11,0,0,0,.05.34.51.51,0,0,0,.17.23.43.43,0,0,0,.25.07.42.42,0,0,0,.36-.17.87.87,0,0,0,.12-.49v-1.53a.8.8,0,0,0-.12-.47.42.42,0,0,0-.36-.17.43.43,0,0,0-.25.07.48.48,0,0,0-.17.22,1.06,1.06,0,0,0-.05.34l-.09-.57a1.32,1.32,0,0,1,.36-.55.78.78,0,0,1,.51-.2.83.83,0,0,1,.5.16.86.86,0,0,1,.31.44,2.06,2.06,0,0,1,.11.7v1.59a2.12,2.12,0,0,1-.11.71,1,1,0,0,1-.33.45A.86.86,0,0,1,405.61,159.22Zm-1.5-4.13h.75v5.72h-.75Zm-1.6,0h.75v4.07h-.75Zm0-1.59h.75v.75h-.75Zm-1.6,2.83a.72.72,0,0,0-.12-.46.45.45,0,0,0-.38-.16.43.43,0,0,0-.37.16.76.76,0,0,0-.13.48l-.08-.58a1.27,1.27,0,0,1,.38-.57.92.92,0,0,1,.56-.19.82.82,0,0,1,.66.29,1.28,1.28,0,0,1,.23.81v3h-.75Zm-1.74-2.88h.74v5.71h-.74Zm-1.86,5.77a1.4,1.4,0,0,1-.66-.15,1.06,1.06,0,0,1-.42-.42,1.38,1.38,0,0,1-.15-.65v0h.74v0a.59.59,0,0,0,.13.41.46.46,0,0,0,.36.14.44.44,0,0,0,.36-.14.53.53,0,0,0,.13-.39.4.4,0,0,0-.07-.26.55.55,0,0,0-.2-.17,2.32,2.32,0,0,0-.33-.14h-.1a3.74,3.74,0,0,1-.49-.24.91.91,0,0,1-.34-.36,1.21,1.21,0,0,1-.14-.6,1.41,1.41,0,0,1,.14-.64,1,1,0,0,1,.4-.42,1.17,1.17,0,0,1,.61-.15,1.28,1.28,0,0,1,.61.14.91.91,0,0,1,.4.4,1.28,1.28,0,0,1,.14.61v0h-.74v0a.52.52,0,0,0-.11-.35.38.38,0,0,0-.3-.12.37.37,0,0,0-.31.14.61.61,0,0,0-.1.38.51.51,0,0,0,.07.28.67.67,0,0,0,.2.17l.3.12h.07a2.49,2.49,0,0,1,.53.22.92.92,0,0,1,.36.35,1.35,1.35,0,0,1,.14.66,1.29,1.29,0,0,1-.15.64,1,1,0,0,1-.42.41A1.4,1.4,0,0,1,397.31,159.22Zm-2.64-2.89a.67.67,0,0,0-.13-.46.42.42,0,0,0-.37-.16.45.45,0,0,0-.38.16.82.82,0,0,0-.12.49l-.08-.59a1.27,1.27,0,0,1,.38-.57.89.89,0,0,1,.55-.19.79.79,0,0,1,.66.29,1.22,1.22,0,0,1,.23.81v3h-.74Zm-1.75-1.24h.75v4.07h-.75Zm-1.95,3.4a.42.42,0,0,0,.32-.12.54.54,0,0,0,.11-.35v-1.81a.5.5,0,0,0-.11-.34.39.39,0,0,0-.32-.13.39.39,0,0,0-.31.13.5.5,0,0,0-.11.34V158a.51.51,0,0,0,.11.34A.37.37,0,0,0,391,158.49Zm0,.73a1.33,1.33,0,0,1-.63-.14,1,1,0,0,1-.41-.41,1.36,1.36,0,0,1-.14-.63v-1.86a1.33,1.33,0,0,1,.14-.63.93.93,0,0,1,.41-.4,1.49,1.49,0,0,1,1.26,0,.91.91,0,0,1,.4.4,1.34,1.34,0,0,1,.13.63v1.87a1.39,1.39,0,0,1-.13.63,1,1,0,0,1-.4.4A1.33,1.33,0,0,1,391,159.22Zm-2.7-4.13H389v4.07h-.75Zm0-1.59H389v.75h-.75Zm-2.41,1.59h1.75v.7h-1.75Zm1.37,4.09a.92.92,0,0,1-.73-.27,1.24,1.24,0,0,1-.23-.81v-4.2H387v4.2a.41.41,0,0,0,.07.27.26.26,0,0,0,.23.1h.29v.71Zm-3.39,0a1,1,0,0,1-.75-.29,1.24,1.24,0,0,1-.25-.86,1.45,1.45,0,0,1,.31-1,1.21,1.21,0,0,1,.95-.34h.52l.05.67h-.57a.48.48,0,0,0-.41.17.85.85,0,0,0-.14.52.42.42,0,0,0,.48.48.52.52,0,0,0,.42-.16.67.67,0,0,0,.13-.46l.09.38a1.38,1.38,0,0,1-.1.5.61.61,0,0,1-.28.31A1,1,0,0,1,383.85,159.22Zm.74-3a.47.47,0,0,0-.5-.52.42.42,0,0,0-.32.14.54.54,0,0,0-.11.38h-.73a1.13,1.13,0,0,1,.31-.86,1.21,1.21,0,0,1,.87-.31,1.49,1.49,0,0,1,.66.14,1,1,0,0,1,.41.4,1.33,1.33,0,0,1,.14.63v3h-.73Zm-2.75,1.9a.41.41,0,0,0,.07.27.26.26,0,0,0,.22.1h.23v.71H382a.89.89,0,0,1-.7-.29,1.12,1.12,0,0,1-.25-.79v-4.63h.75Zm-2.73,1.14a1.35,1.35,0,0,1-.67-.16,1.06,1.06,0,0,1-.43-.46,1.64,1.64,0,0,1-.14-.73v-1.43a1.83,1.83,0,0,1,.14-.77,1,1,0,0,1,.41-.49,1.23,1.23,0,0,1,.65-.17,1.34,1.34,0,0,1,.66.16.92.92,0,0,1,.42.45,1.6,1.6,0,0,1,.14.72v1.07h-1.9v-.61h1.19v-.45a.79.79,0,0,0-.13-.49.46.46,0,0,0-.38-.17.43.43,0,0,0-.36.18.9.9,0,0,0-.13.53v1.49a.72.72,0,0,0,.14.46.48.48,0,0,0,.39.17.45.45,0,0,0,.48-.48v0h.72v0a1.15,1.15,0,0,1-.32.87A1.22,1.22,0,0,1,379.11,159.22Zm-3.35-2.65.71-.18.91,2.77h-.82Zm-1.33-3.12h.75v5.71h-.75Zm.35,2.59h1.05a.75.75,0,0,0,.35-.08.47.47,0,0,0,.21-.21.74.74,0,0,0,.08-.34v-.58a.87.87,0,0,0-.08-.37.52.52,0,0,0-.21-.23.75.75,0,0,0-.35-.07h-1.05v-.71h1a1.87,1.87,0,0,1,.78.15,1.11,1.11,0,0,1,.49.44,1.32,1.32,0,0,1,.17.7v.67a1.37,1.37,0,0,1-.17.72,1.15,1.15,0,0,1-.49.46,1.87,1.87,0,0,1-.78.15h-1Zm-4.33,3.19a.79.79,0,0,1-.49-.15.88.88,0,0,1-.31-.41,1.83,1.83,0,0,1-.1-.66v-1.74a2,2,0,0,1,.1-.68.94.94,0,0,1,.31-.43.79.79,0,0,1,.49-.15.85.85,0,0,1,.51.19,1.54,1.54,0,0,1,.38.53l-.09.56a1,1,0,0,0-.05-.32.51.51,0,0,0-.17-.21.44.44,0,0,0-.26-.07.41.41,0,0,0-.35.16.64.64,0,0,0-.13.44V158a.56.56,0,0,0,.13.41.43.43,0,0,0,.35.15.53.53,0,0,0,.26-.07.48.48,0,0,0,.17-.2,1,1,0,0,0,.05-.32l.06.55a1.15,1.15,0,0,1-.34.52A.76.76,0,0,1,370.45,159.23Zm.3,1.58a1.19,1.19,0,0,1-.87-.3,1.13,1.13,0,0,1-.31-.85v-.1h.74v.1a.55.55,0,0,0,.12.37.5.5,0,0,0,.35.13.48.48,0,0,0,.35-.13.53.53,0,0,0,.12-.37v-4.57H372v4.57a1.19,1.19,0,0,1-.14.62,1,1,0,0,1-.42.4A1.56,1.56,0,0,1,370.75,160.81ZM368,156.33a.67.67,0,0,0-.13-.46.42.42,0,0,0-.37-.16.45.45,0,0,0-.38.16.82.82,0,0,0-.12.49l-.08-.59a1.27,1.27,0,0,1,.38-.57.89.89,0,0,1,.55-.19.79.79,0,0,1,.66.29,1.22,1.22,0,0,1,.23.81v3H368Zm-1.74-1.24H367v4.07h-.74Zm-1.61,0h.75v4.07h-.75Zm0-1.59h.75v.75h-.75Zm-2.4,5.73a.76.76,0,0,1-.48-.15.82.82,0,0,1-.31-.41,1.82,1.82,0,0,1-.11-.66v-1.74a2,2,0,0,1,.11-.68.87.87,0,0,1,.31-.43.76.76,0,0,1,.48-.15.8.8,0,0,1,.51.19,1.42,1.42,0,0,1,.38.53l-.08.58A.79.79,0,0,0,363,156a.49.49,0,0,0-.16-.21.46.46,0,0,0-.26-.07.41.41,0,0,0-.35.16.69.69,0,0,0-.13.45V158a.58.58,0,0,0,.13.41.42.42,0,0,0,.35.14.46.46,0,0,0,.26-.07.41.41,0,0,0,.16-.2.71.71,0,0,0,.06-.31l.05.57a1.06,1.06,0,0,1-.33.52A.78.78,0,0,1,362.27,159.23Zm.81-5.78h.74v5.71h-.74Zm-2.74,4.63a.41.41,0,0,0,.08.27.25.25,0,0,0,.22.1h.22v.71h-.31a.91.91,0,0,1-.71-.29,1.17,1.17,0,0,1-.24-.79v-4.63h.74Zm-2.34-3h.74v4.07H358Zm0-1.59h.74v.75H358ZM355.48,158a.45.45,0,0,0,.12.34.46.46,0,0,0,.8-.35l.05.5a1.07,1.07,0,0,1-.31.52.76.76,0,0,1-.5.17.83.83,0,0,1-.68-.29,1.4,1.4,0,0,1-.23-.86v-3h.75Zm.92-2.95h.74v4.07h-.74Zm-5.08-1.64h.75v5.71h-.75Zm.48,5h.93a.57.57,0,0,0,.39-.12.45.45,0,0,0,.14-.36v-.75a.87.87,0,0,0-.07-.37.53.53,0,0,0-.5-.31h-.89v-.7h.89a.45.45,0,0,0,.37-.17.71.71,0,0,0,.13-.45v-.58a.45.45,0,0,0-.49-.48h-.9v-.71h.89a1.54,1.54,0,0,1,.67.14,1,1,0,0,1,.43.39,1.29,1.29,0,0,1,.14.62v.6a1.32,1.32,0,0,1-.08.47.8.8,0,0,1-.25.34,1,1,0,0,1-.39.19.91.91,0,0,1,.43.17.82.82,0,0,1,.27.36,1.12,1.12,0,0,1,.1.5V158a1.33,1.33,0,0,1-.14.63,1,1,0,0,1-.42.4,1.45,1.45,0,0,1-.65.14h-1Zm-3.55-.08H349v.79h-.78Zm-1.72.85a1.4,1.4,0,0,1-.66-.15,1.06,1.06,0,0,1-.42-.42,1.38,1.38,0,0,1-.15-.65v0H346v0a.59.59,0,0,0,.13.41.47.47,0,0,0,.36.14.43.43,0,0,0,.36-.14A.53.53,0,0,0,347,158a.4.4,0,0,0-.08-.26.61.61,0,0,0-.19-.17l-.34-.14h-.1a3.74,3.74,0,0,1-.49-.24.91.91,0,0,1-.34-.36,1.21,1.21,0,0,1-.14-.6,1.41,1.41,0,0,1,.14-.64,1,1,0,0,1,.4-.42,1.2,1.2,0,0,1,.61-.15,1.35,1.35,0,0,1,.62.14.94.94,0,0,1,.39.4,1.28,1.28,0,0,1,.14.61v0h-.74v0a.48.48,0,0,0-.11-.35.38.38,0,0,0-.3-.12.34.34,0,0,0-.3.14.56.56,0,0,0-.11.38.51.51,0,0,0,.07.28.67.67,0,0,0,.2.17l.3.12h.07a2.49,2.49,0,0,1,.53.22.92.92,0,0,1,.36.35,1.35,1.35,0,0,1,.14.66,1.29,1.29,0,0,1-.15.64,1,1,0,0,1-.42.41A1.4,1.4,0,0,1,346.53,159.22ZM343.41,157l.43-.57,1.34,2.69h-.81Zm-1.14-3.59H343v5.71h-.74Zm.35,4.23,1.62-2.59H345l-2.36,3.52Zm-2-1.35a.72.72,0,0,0-.12-.46.45.45,0,0,0-.38-.16.42.42,0,0,0-.37.16.82.82,0,0,0-.13.49l-.08-.59a1.27,1.27,0,0,1,.38-.57.89.89,0,0,1,.55-.19.83.83,0,0,1,.67.29,1.28,1.28,0,0,1,.23.81v3h-.75Zm-1.74-1.24h.74v4.07h-.74Zm-1.6,0h.74v4.07h-.74Zm0-1.59h.74v.75h-.74Zm-2.59,4.95h2v.71h-2Zm-.4-5h.75v5.71h-.75Zm-4,5.78a.76.76,0,0,1-.48-.15.82.82,0,0,1-.31-.41,1.82,1.82,0,0,1-.11-.66v-1.74a2,2,0,0,1,.11-.68.87.87,0,0,1,.31-.43.76.76,0,0,1,.48-.15.8.8,0,0,1,.51.19,1.42,1.42,0,0,1,.38.53l-.08.56a.76.76,0,0,0-.06-.32.49.49,0,0,0-.16-.21.44.44,0,0,0-.26-.07.42.42,0,0,0-.36.16.7.7,0,0,0-.13.44V158a.61.61,0,0,0,.13.41.45.45,0,0,0,.36.15.53.53,0,0,0,.26-.07.46.46,0,0,0,.16-.2.76.76,0,0,0,.06-.32l.05.55a1.06,1.06,0,0,1-.33.52A.78.78,0,0,1,330.34,159.23Zm.31,1.58a1.22,1.22,0,0,1-.88-.3,1.16,1.16,0,0,1-.31-.85v-.1h.74v.1a.51.51,0,0,0,.13.37.48.48,0,0,0,.35.13A.5.5,0,0,0,331,160a.53.53,0,0,0,.12-.37v-4.57h.74v4.57a1.19,1.19,0,0,1-.15.62.86.86,0,0,1-.42.4A1.51,1.51,0,0,1,330.65,160.81Zm-2.74-4.48a.72.72,0,0,0-.12-.46.44.44,0,0,0-.38-.16.43.43,0,0,0-.37.16.82.82,0,0,0-.12.49l-.09-.59a1.36,1.36,0,0,1,.38-.57.92.92,0,0,1,.56-.19.79.79,0,0,1,.66.29,1.28,1.28,0,0,1,.23.81v3h-.75Zm-1.74-1.24h.75v4.07h-.75Zm-1.6,0h.75v4.07h-.75Zm0-1.59h.75v.75h-.75Zm-2.4,5.73a.81.81,0,0,1-.49-.15.86.86,0,0,1-.3-.41,1.63,1.63,0,0,1-.11-.66v-1.74a1.76,1.76,0,0,1,.11-.68.93.93,0,0,1,.3-.43.81.81,0,0,1,.49-.15.85.85,0,0,1,.51.19,1.4,1.4,0,0,1,.37.53l-.08.58a.79.79,0,0,0-.06-.32.41.41,0,0,0-.42-.28.42.42,0,0,0-.35.16.75.75,0,0,0-.13.45V158a.63.63,0,0,0,.13.41.43.43,0,0,0,.35.14.42.42,0,0,0,.26-.07.36.36,0,0,0,.16-.2A.71.71,0,0,0,323,158l.06.57a1.15,1.15,0,0,1-.34.52A.76.76,0,0,1,322.17,159.23Zm.8-5.78h.75v5.71H323Zm-2.73,4.63a.41.41,0,0,0,.07.27.26.26,0,0,0,.23.1h.22v.71h-.31a.9.9,0,0,1-.71-.29,1.12,1.12,0,0,1-.25-.79v-4.63h.75Zm-2.35-3h.75v4.07h-.75Zm0-1.59h.75v.75h-.75ZM315.38,158a.45.45,0,0,0,.11.34.52.52,0,0,0,.35.11.5.5,0,0,0,.34-.11.52.52,0,0,0,.11-.35l.06.5a1.24,1.24,0,0,1-.31.52.78.78,0,0,1-.5.17.82.82,0,0,1-.68-.29,1.4,1.4,0,0,1-.23-.86v-3h.75Zm.91-2.95H317v4.07h-.75Zm-5.07-1.64H312v5.71h-.75Zm.47,5h.94a.57.57,0,0,0,.39-.12.49.49,0,0,0,.14-.36v-.75a.87.87,0,0,0-.07-.37.64.64,0,0,0-.2-.23.61.61,0,0,0-.3-.08h-.9v-.7h.9a.42.42,0,0,0,.36-.17.65.65,0,0,0,.13-.45v-.58a.45.45,0,0,0-.48-.48h-.91v-.71h.9a1.54,1.54,0,0,1,.67.14.89.89,0,0,1,.42.39,1.19,1.19,0,0,1,.15.62v.6a1.13,1.13,0,0,1-.09.47.72.72,0,0,1-.25.34.89.89,0,0,1-.39.19.87.87,0,0,1,.43.17.84.84,0,0,1,.28.36,1.28,1.28,0,0,1,.09.5V158a1.22,1.22,0,0,1-.14.63.88.88,0,0,1-.41.4,1.46,1.46,0,0,1-.66.14h-1Z" transform="translate(-267.63 -127.33)"/></svg>