<svg width="363" height="324" viewBox="0 0 363 324" fill="none" xmlns="http://www.w3.org/2000/svg">
<rect width="363" height="324" fill="white"/>
<path d="M198.032 146.976C197.99 139.845 201.217 134.471 207.734 130.508C204.089 125.28 198.575 122.404 191.306 121.85C184.424 121.306 176.894 125.865 174.137 125.865C171.223 125.865 164.56 122.038 159.318 122.038C148.498 122.205 137 130.675 137 147.907C137 152.999 137.929 158.259 139.788 163.675C142.274 170.806 151.234 188.279 160.581 187.997C165.469 187.882 168.926 184.525 175.286 184.525C181.458 184.525 184.654 187.997 190.105 187.997C199.536 187.861 207.64 171.978 210 164.825C197.353 158.855 198.032 147.342 198.032 146.976ZM187.056 115.085C192.35 108.79 191.87 103.06 191.713 101C187.035 101.272 181.625 104.189 178.544 107.776C175.15 111.624 173.155 116.381 173.584 121.745C178.638 122.132 183.254 119.529 187.056 115.085Z" fill="black"/>
<path d="M218.633 137.402C218.633 138.001 218.405 138.561 217.949 139.082C217.507 139.59 217.018 139.844 216.484 139.844C215.872 139.844 215.371 139.661 214.98 139.297C214.59 138.932 214.395 138.457 214.395 137.871C214.395 137.298 214.629 136.764 215.098 136.27C215.579 135.775 216.094 135.527 216.641 135.527C217.969 135.527 218.633 136.152 218.633 137.402ZM220.801 159.512C220.736 159.889 220.579 160.104 220.332 160.156C220.267 160.169 219.954 160.156 219.395 160.117C217.454 159.987 215.547 160.013 213.672 160.195C213.164 160.247 212.845 160.228 212.715 160.137C212.585 160.046 212.52 159.837 212.52 159.512C212.52 159.212 212.865 158.965 213.555 158.77C214.31 158.548 214.688 157.826 214.688 156.602V151.484C214.688 150.456 214.583 149.733 214.375 149.316C214.089 148.743 213.496 148.307 212.598 148.008C212.194 147.865 211.992 147.65 211.992 147.363C211.992 146.986 212.285 146.706 212.871 146.523C213.965 146.185 214.935 145.736 215.781 145.176C216.458 144.707 216.875 144.473 217.031 144.473C217.552 144.473 217.806 144.811 217.793 145.488C217.741 148.9 217.715 152.376 217.715 155.918C217.715 156.764 217.839 157.37 218.086 157.734C218.359 158.138 218.88 158.424 219.648 158.594C220.495 158.789 220.879 159.095 220.801 159.512ZM252.324 147.129C252.324 150.892 250.931 154.082 248.145 156.699C245.41 159.277 242.122 160.566 238.281 160.566C234.245 160.566 230.892 159.355 228.223 156.934C225.488 154.434 224.121 151.204 224.121 147.246C224.121 143.418 225.508 140.202 228.281 137.598C231.016 135.046 234.349 133.77 238.281 133.77C242.292 133.77 245.625 135.013 248.281 137.5C250.977 140.026 252.324 143.236 252.324 147.129ZM248.359 147.793C248.359 144.004 247.324 141.009 245.254 138.809C243.262 136.699 240.632 135.645 237.363 135.645C234.655 135.645 232.428 136.647 230.684 138.652C228.952 140.645 228.086 143.242 228.086 146.445C228.086 150.286 229.095 153.307 231.113 155.508C233.079 157.643 235.749 158.711 239.121 158.711C241.842 158.711 244.062 157.708 245.781 155.703C247.5 153.698 248.359 151.061 248.359 147.793ZM274.883 153.203C274.883 155.404 274.076 157.168 272.461 158.496C270.781 159.876 268.483 160.566 265.566 160.566C261.725 160.566 259.473 159.857 258.809 158.438C258.405 157.578 258.001 156.484 257.598 155.156C257.428 154.544 257.552 154.147 257.969 153.965C258.49 153.73 258.9 153.835 259.199 154.277C260.306 155.918 261.419 157.083 262.539 157.773C263.62 158.438 264.883 158.77 266.328 158.77C269.948 158.77 271.758 157.324 271.758 154.434C271.758 153.301 271.361 152.337 270.566 151.543C269.798 150.801 268.21 149.779 265.801 148.477C262.754 146.836 260.749 145.547 259.785 144.609C258.6 143.451 258.008 142.018 258.008 140.312C258.008 138.503 258.763 136.96 260.273 135.684C261.797 134.408 263.737 133.77 266.094 133.77C267.76 133.77 269.382 133.978 270.957 134.395C272.168 134.72 272.852 135.137 273.008 135.645C273.333 136.699 273.548 138.001 273.652 139.551C273.678 140.111 273.49 140.423 273.086 140.488C272.578 140.566 272.22 140.391 272.012 139.961C271.204 138.333 270.286 137.188 269.258 136.523C268.307 135.911 267.064 135.605 265.527 135.605C264.16 135.605 263.079 135.924 262.285 136.562C261.491 137.201 261.094 138.105 261.094 139.277C261.094 140.371 261.484 141.315 262.266 142.109C263.008 142.852 264.375 143.724 266.367 144.727C269.44 146.263 271.556 147.565 272.715 148.633C274.16 149.948 274.883 151.471 274.883 153.203Z" fill="black"/>
</svg>
