<svg width="699" height="1106" viewBox="0 0 699 1106" fill="none" xmlns="http://www.w3.org/2000/svg">
<rect y="146.462" width="229" height="800" fill="#B387FF"/>
<rect y="146.462" width="229" height="800" fill="black" fill-opacity="0.2"/>
<rect x="187.508" y="640.535" width="196.126" height="356.794" transform="rotate(-138.513 187.508 640.535)" fill="#B387FF"/>
<rect x="187.508" y="640.535" width="196.126" height="356.794" transform="rotate(-138.513 187.508 640.535)" fill="black" fill-opacity="0.2"/>
<rect x="66.251" y="620.348" width="196.126" height="356.794" transform="rotate(-41.2221 66.251 620.348)" fill="#B387FF"/>
<rect x="66.251" y="620.348" width="196.126" height="356.794" transform="rotate(-41.2221 66.251 620.348)" fill="black" fill-opacity="0.2"/>
<path d="M360.443 147.691L621.681 150.816L395.208 406.625L360.443 147.691Z" fill="#B387FF"/>
<path d="M360.443 147.691L621.681 150.816L395.208 406.625L360.443 147.691Z" fill="black" fill-opacity="0.2"/>
<path d="M367.794 960.332L390.672 696.577L632.291 948.871L367.794 960.332Z" fill="#B387FF"/>
<path d="M367.794 960.332L390.672 696.577L632.291 948.871L367.794 960.332Z" fill="black" fill-opacity="0.2"/>
<path d="M408.283 343.666L206.365 313.449L362.451 144.71L408.283 343.666Z" fill="#B387FF"/>
<path d="M408.283 343.666L206.365 313.449L362.451 144.71L408.283 343.666Z" fill="black" fill-opacity="0.2"/>
<path d="M392.032 749.191L368.253 958.704L182.338 771.311L392.032 749.191Z" fill="#B387FF"/>
<path d="M392.032 749.191L368.253 958.704L182.338 771.311L392.032 749.191Z" fill="black" fill-opacity="0.2"/>
</svg>
