<svg width="363" height="324" viewBox="0 0 363 324" fill="none" xmlns="http://www.w3.org/2000/svg">
<rect width="363" height="324" fill="white"/>
<path d="M171.43 203.258C171.757 204.731 172.214 206.034 172.801 207.167C172.9 207.359 172.618 207.608 171.955 207.913C170.315 208.66 168.316 209.644 165.959 210.865C163.45 212.165 161.241 213.373 159.33 214.491C159.048 214.663 158.852 214.732 158.745 214.698C158.643 214.674 158.529 214.541 158.403 214.298C158.267 214.035 158.405 213.771 158.82 213.505C159.759 212.89 159.979 212.102 159.481 211.141L152.226 197.135C151.859 196.427 151.49 195.95 151.12 195.706C150.678 195.422 150.07 195.339 149.297 195.457C148.829 195.52 148.54 195.381 148.428 195.041C148.343 194.803 148.34 194.638 148.421 194.545C148.501 194.452 148.766 194.321 149.218 194.151C150.778 193.548 152.533 192.626 154.483 191.385C154.831 191.166 155.033 191.049 155.089 191.033C155.307 190.958 155.494 191.034 155.65 191.262C155.822 191.519 155.853 191.74 155.744 191.925C155.704 191.997 155.528 192.165 155.216 192.43C154.592 192.958 154.244 193.376 154.171 193.683C154.094 193.979 154.228 194.462 154.574 195.129L161.61 208.711C162.05 209.56 162.634 209.995 163.363 210.016C164.097 210.02 165.218 209.632 166.725 208.852C168.162 208.107 169.13 207.375 169.629 206.654C170.133 205.919 170.338 204.927 170.244 203.68C170.196 203.191 170.373 202.926 170.775 202.885C171.141 202.798 171.359 202.923 171.43 203.258ZM187.041 198.135C187.152 198.347 186.93 198.873 186.376 199.711C185.827 200.535 185.32 201.067 184.855 201.308C184.46 201.512 184.012 201.501 183.509 201.274C183.007 201.046 182.695 200.964 182.573 201.027C182.482 201.074 182.109 201.531 181.454 202.396C180.799 203.261 180.031 203.922 179.151 204.378C178.321 204.808 177.503 204.924 176.695 204.727C175.81 204.505 175.129 203.934 174.652 203.013C173.746 201.263 175.099 198.971 178.712 196.137C179.332 195.649 179.537 195.19 179.327 194.76L178.854 193.773C178.055 192.082 176.892 191.633 175.364 192.424C174.929 192.649 174.716 193.254 174.725 194.237C174.744 195.215 174.406 195.923 173.709 196.361C172.921 196.872 172.325 196.738 171.922 195.959C171.67 195.473 171.994 194.587 172.893 193.3C173.837 191.952 174.905 190.968 176.099 190.35C178.153 189.286 179.675 189.736 180.666 191.699L183.844 197.982C184.175 198.645 184.623 198.83 185.19 198.536C185.301 198.478 185.5 198.343 185.788 198.13C186.075 197.917 186.244 197.797 186.295 197.771C186.588 197.619 186.837 197.74 187.041 198.135ZM180.575 197.096C180.455 196.838 180.307 196.703 180.134 196.69C179.971 196.672 179.765 196.759 179.519 196.951C177.306 198.649 176.498 200.074 177.096 201.228C177.698 202.391 178.632 202.645 179.896 201.99C180.402 201.728 180.873 201.362 181.31 200.892C181.822 200.345 181.997 199.914 181.834 199.601L180.575 197.096ZM193.634 182.922C194.268 184.146 194.231 184.941 193.523 185.308C193.412 185.366 193.006 185.486 192.305 185.669C191.605 185.853 191.108 186.02 190.814 186.172C189.681 186.759 189.511 187.817 190.302 189.344L192.621 193.821C192.893 194.347 193.269 194.627 193.749 194.661C194.029 194.682 194.652 194.584 195.617 194.366C196.13 194.242 196.447 194.296 196.567 194.529C196.709 194.802 196.752 194.985 196.697 195.077C196.658 195.174 196.479 195.287 196.16 195.413C193.813 196.334 192.048 197.235 190.863 198.119C190.495 198.399 190.237 198.533 190.089 198.519C189.967 198.506 189.829 198.352 189.677 198.059C189.536 197.786 189.701 197.424 190.174 196.974C190.657 196.519 190.688 195.887 190.269 195.077L187.746 190.206C187.416 189.569 187.107 189.183 186.82 189.05C186.543 188.911 185.933 188.849 184.99 188.862L184.876 188.864C184.621 188.867 184.446 188.778 184.352 188.596C184.247 188.394 184.366 188.114 184.707 187.758C185.279 187.153 185.738 186.479 186.084 185.736C186.366 185.115 186.573 184.771 186.704 184.702C187.068 184.514 187.448 184.715 187.844 185.305C188.349 186.057 188.662 186.402 188.784 186.339C188.794 186.334 189.164 185.661 189.894 184.32C190.375 183.442 191.056 182.775 191.936 182.319C192.665 181.942 193.231 182.143 193.634 182.922ZM212.596 184.898C212.706 185.11 212.484 185.636 211.93 186.474C211.382 187.297 210.875 187.829 210.409 188.07C210.015 188.275 209.566 188.263 209.063 188.036C208.561 187.809 208.249 187.727 208.127 187.79C208.036 187.837 207.663 188.293 207.008 189.159C206.353 190.024 205.585 190.685 204.705 191.141C203.876 191.57 203.057 191.687 202.249 191.489C201.364 191.267 200.683 190.696 200.206 189.776C199.3 188.026 200.653 185.734 204.266 182.9C204.886 182.412 205.091 181.953 204.881 181.523L204.408 180.536C203.609 178.845 202.446 178.395 200.919 179.187C200.484 179.412 200.271 180.016 200.28 181C200.299 181.978 199.96 182.686 199.263 183.124C198.475 183.635 197.88 183.5 197.476 182.722C197.225 182.236 197.548 181.35 198.447 180.063C199.391 178.714 200.46 177.731 201.653 177.113C203.707 176.049 205.229 176.498 206.221 178.461L209.399 184.745C209.729 185.407 210.178 185.592 210.744 185.299C210.855 185.241 211.055 185.106 211.342 184.893C211.63 184.68 211.799 184.56 211.849 184.534C212.142 184.382 212.391 184.503 212.596 184.898ZM206.13 183.859C206.009 183.601 205.862 183.465 205.688 183.452C205.525 183.434 205.32 183.521 205.073 183.714C202.86 185.411 202.052 186.837 202.65 187.99C203.252 189.154 204.186 189.408 205.451 188.753C205.956 188.491 206.428 188.125 206.864 187.655C207.376 187.107 207.551 186.677 207.388 186.363L206.13 183.859ZM223.779 166.768C223.878 166.96 223.662 167.322 223.129 167.855C222.778 168.191 222.638 168.789 222.712 169.649C222.834 171.1 222.876 173.298 222.837 176.244C222.806 178.736 222.741 180.579 222.641 181.773C222.647 181.86 222.597 181.924 222.49 181.966C222.384 182.009 222.287 182.007 222.2 181.963C218.457 179.988 214.986 177.783 211.786 175.347C211.106 174.827 210.589 174.608 210.233 174.689C209.526 174.76 209.125 174.705 209.031 174.523C208.821 174.118 208.927 173.839 209.347 173.685C210.006 173.446 210.932 172.992 212.125 172.323C213.283 171.685 214.076 171.197 214.505 170.86C214.767 170.647 214.971 170.682 215.118 170.966C215.301 171.32 215.212 171.655 214.849 171.971C214.17 172.592 213.917 173.069 214.09 173.403C214.169 173.555 214.332 173.746 214.58 173.977C215.364 174.649 216.618 175.558 218.341 176.706C220.059 177.843 220.979 178.38 221.101 178.317C221.192 178.27 221.223 177.278 221.196 175.342C221.161 173.294 221.062 171.678 220.897 170.493C220.89 170.356 220.858 170.231 220.8 170.12C220.596 169.725 220.185 169.527 219.568 169.526C218.993 169.58 218.661 169.521 218.572 169.349C218.389 168.995 218.47 168.767 218.815 168.665C219.256 168.527 220.001 168.218 221.049 167.739C222.097 167.26 222.765 166.927 223.052 166.74C223.39 166.475 223.632 166.484 223.779 166.768ZM241.681 168.445C241.907 168.88 241.6 169.726 240.762 170.981C239.799 172.391 238.614 173.46 237.208 174.189C235.68 174.98 234.136 175.145 232.575 174.683C230.912 174.197 229.622 173.069 228.705 171.299C227.667 169.296 227.456 167.365 228.072 165.506C228.648 163.77 229.781 162.465 231.471 161.59C232.472 161.071 233.573 160.905 234.773 161.092C235.846 161.255 236.697 161.635 237.327 162.232C237.549 162.438 237.759 162.509 237.957 162.445C238.246 162.359 238.469 162.468 238.627 162.772C238.842 163.186 238.529 163.797 237.69 164.604L231.771 170.307C233.474 172.479 235.331 173.043 237.345 172.001C238.508 171.398 239.613 170.286 240.66 168.666C240.815 168.42 240.998 168.241 241.21 168.131C241.372 168.047 241.529 168.152 241.681 168.445ZM234.933 164.223C234.644 163.667 234.165 163.299 233.495 163.12C232.83 162.926 232.169 162.999 231.511 163.34C229.65 164.304 229.413 166.126 230.802 168.807L230.991 169.172L234.474 165.789C235.042 165.251 235.195 164.729 234.933 164.223ZM252.152 165.697C252.361 166.101 252.226 166.396 251.744 166.582C250.28 167.173 248.56 168.09 246.586 169.331C246.192 169.586 245.929 169.709 245.796 169.701C245.674 169.688 245.542 169.544 245.4 169.271C245.274 169.028 245.443 168.685 245.905 168.24C246.373 167.78 246.391 167.135 245.962 166.305L238.848 152.572C238.423 151.753 237.99 151.213 237.548 150.955C237.116 150.691 236.547 150.607 235.84 150.704C235.469 150.755 235.231 150.68 235.126 150.477C234.969 150.174 235.078 149.828 235.455 149.441C236.028 148.862 236.563 148.148 237.06 147.301C237.478 146.622 237.769 146.241 237.93 146.157C238.305 145.963 238.626 146.124 238.893 146.64C238.872 146.599 239.114 147.116 239.618 148.189C240.107 149.206 240.607 150.198 241.121 151.164L248.201 164.683C248.521 165.3 248.906 165.672 249.356 165.798C249.801 165.914 250.416 165.826 251.202 165.535C251.683 165.349 252 165.403 252.152 165.697Z" fill="black"/>
<path d="M214.965 120.836C214.954 120.805 214.94 120.773 214.925 120.743C214.904 120.685 214.878 120.627 214.848 120.572C214.824 120.538 214.798 120.506 214.77 120.475C214.738 120.431 214.703 120.388 214.666 120.347C214.632 120.317 214.59 120.292 214.554 120.265C214.513 120.231 214.469 120.2 214.424 120.172L200.487 112.595C200.311 112.499 200.112 112.448 199.908 112.448C199.705 112.448 199.505 112.499 199.329 112.595L185.39 120.176C185.345 120.205 185.302 120.236 185.262 120.27C185.223 120.295 185.185 120.323 185.149 120.352C185.112 120.392 185.077 120.435 185.045 120.479C185.021 120.512 184.989 120.541 184.967 120.577C184.938 120.632 184.913 120.689 184.892 120.747C184.88 120.779 184.861 120.808 184.851 120.84C184.825 120.933 184.811 121.029 184.811 121.125V135.513L173.197 141.828V113.674C173.197 113.577 173.183 113.481 173.156 113.388C173.147 113.355 173.127 113.326 173.115 113.295C173.095 113.237 173.07 113.18 173.04 113.125C173.02 113.09 172.987 113.061 172.962 113.027C172.93 112.982 172.895 112.939 172.858 112.898C172.822 112.869 172.784 112.842 172.745 112.816C172.704 112.783 172.662 112.752 172.617 112.723L158.677 105.147C158.501 105.051 158.301 105 158.098 105C157.894 105 157.694 105.051 157.518 105.147L143.581 112.723C143.535 112.751 143.493 112.783 143.453 112.818C143.413 112.843 143.375 112.87 143.339 112.9C143.301 112.94 143.267 112.982 143.236 113.027C143.21 113.061 143.178 113.09 143.156 113.125C143.127 113.18 143.102 113.237 143.083 113.295C143.067 113.325 143.053 113.355 143.041 113.387C143.014 113.48 143 113.577 143 113.674V158.75C142.999 158.942 143.053 159.131 143.154 159.298C143.256 159.465 143.403 159.604 143.579 159.7L171.449 174.854C171.511 174.883 171.575 174.908 171.642 174.928C171.672 174.938 171.701 174.955 171.733 174.963C171.927 175.012 172.132 175.012 172.326 174.963C172.355 174.956 172.38 174.941 172.406 174.933C172.476 174.912 172.544 174.886 172.609 174.854L200.487 159.7C200.664 159.604 200.81 159.465 200.912 159.298C201.014 159.131 201.067 158.942 201.066 158.75V144.359L214.421 137.098C214.598 137.001 214.746 136.861 214.847 136.693C214.949 136.525 215.002 136.334 215 136.141V121.122C215.001 121.026 214.989 120.93 214.965 120.836ZM158.096 107.363L169.706 113.672L158.095 119.986L146.486 113.674L158.096 107.363ZM170.873 115.566V143.09L164.136 146.753L159.259 149.405V121.885L165.995 118.222L170.873 115.566ZM170.873 172L145.322 158.115V115.571L150.2 118.221L156.935 121.885V151.304C156.938 151.345 156.944 151.386 156.952 151.427C156.956 151.481 156.964 151.535 156.976 151.588C156.99 151.631 157.009 151.672 157.031 151.711C157.047 151.759 157.067 151.804 157.091 151.848C157.118 151.885 157.147 151.921 157.178 151.955C157.207 151.995 157.239 152.033 157.274 152.07C157.307 152.1 157.349 152.122 157.385 152.149C157.425 152.181 157.466 152.211 157.51 152.239L170.857 159.373L170.873 172ZM172.031 157.485L160.44 151.289L172.615 144.67L185.972 137.409L197.573 143.716L189.06 148.304L172.031 157.485ZM198.746 158.11L173.194 172.007V159.387L192.119 149.188L198.746 145.612V158.11ZM198.746 141.823L193.868 139.18L187.131 135.517V123.018L192.009 125.671L198.746 129.336V141.823ZM199.904 127.429L188.293 121.117L199.904 114.806L211.512 121.115L199.904 127.429ZM201.062 141.823V129.336L207.813 125.671L212.689 123.018V135.513L201.062 141.823Z" fill="black"/>
</svg>
