<svg width="144" height="37" viewBox="0 0 144 37" fill="none" xmlns="http://www.w3.org/2000/svg">
<g clip-path="url(#clip0_2_2)">
<path d="M32.91 31.91C32.91 31.91 16.53 42.59 2.53003 27.07" stroke="#235F43" stroke-width="2.22" stroke-linecap="round" stroke-linejoin="round"/>
<path fill-rule="evenodd" clip-rule="evenodd" d="M40.06 26.92C40.3677 27.3489 40.5414 27.8594 40.5591 28.3869C40.5768 28.9145 40.4377 29.4355 40.1594 29.884C39.8812 30.3326 39.4762 30.6886 38.9956 30.907C38.5151 31.1255 37.9806 31.1966 37.4597 31.1114C36.9387 31.0263 36.4547 30.7886 36.0688 30.4284C35.6829 30.0682 35.4124 29.6018 35.2915 29.088C35.1707 28.5741 35.2048 28.036 35.3896 27.5415C35.5745 27.0471 35.9017 26.6185 36.33 26.31C36.6148 26.1048 36.9374 25.9578 37.2791 25.8774C37.6208 25.797 37.9751 25.7848 38.3215 25.8415C38.668 25.8981 38.9999 26.0225 39.2982 26.2076C39.5965 26.3927 39.8554 26.6348 40.06 26.92Z" fill="#235F43"/>
<path d="M136.63 6.1H143.19V8.1H136.63V6.1ZM141.75 21.38C141.254 21.426 140.754 21.36 140.286 21.1869C139.819 21.0138 139.397 20.7381 139.05 20.38C138.421 19.5115 138.117 18.4499 138.19 17.38V1.67001H140.3V17.38C140.268 17.919 140.423 18.4525 140.74 18.89C140.905 19.0698 141.109 19.2099 141.335 19.2999C141.562 19.39 141.807 19.4276 142.05 19.41H143.19V21.41L141.75 21.38ZM129.37 6.1H136.37V7.91001H129.37V6.1ZM130.98 4.03001C130.905 2.93736 131.265 1.85939 131.98 1.03001C132.344 0.664368 132.783 0.380683 133.266 0.197893C133.748 0.0151029 134.265 -0.0625837 134.78 -0.0299896H136.37V1.97001H134.82C134.579 1.95376 134.337 1.99308 134.113 2.08497C133.89 2.17686 133.69 2.31885 133.53 2.50001C133.208 2.9312 133.048 3.46256 133.08 4.00001V21.3H130.97L130.98 4.03001ZM123.56 19.56C123.867 19.5794 124.175 19.5333 124.463 19.4247C124.751 19.316 125.012 19.1474 125.23 18.93C125.656 18.4347 125.872 17.7922 125.83 17.14V10.14C125.869 9.50038 125.653 8.87142 125.23 8.39001C125.011 8.17414 124.749 8.00655 124.462 7.89803C124.174 7.78952 123.867 7.7425 123.56 7.76C123.254 7.74075 122.948 7.78699 122.662 7.89564C122.376 8.00429 122.116 8.17284 121.9 8.39001C121.488 8.87662 121.28 9.50368 121.32 10.14V17.14C121.277 17.7889 121.485 18.4296 121.9 18.93C122.114 19.1446 122.37 19.3116 122.653 19.4202C122.935 19.5287 123.238 19.5764 123.54 19.56H123.56ZM123.56 21.56C122.743 21.5822 121.932 21.4037 121.2 21.04C120.557 20.7056 120.036 20.1773 119.71 19.53C119.353 18.7852 119.178 17.9659 119.2 17.14V10.22C119.176 9.40685 119.351 8.60018 119.71 7.87C120.04 7.23342 120.561 6.71597 121.2 6.39001C121.94 6.04775 122.745 5.87048 123.56 5.87048C124.375 5.87048 125.18 6.04775 125.92 6.39001C126.559 6.71597 127.08 7.23342 127.41 7.87C127.776 8.59806 127.954 9.40567 127.93 10.22V17.22C127.954 18.0407 127.775 18.8547 127.41 19.59C127.084 20.2344 126.562 20.7594 125.92 21.09C125.177 21.4243 124.363 21.572 123.55 21.52L123.56 21.56ZM112.87 21.56C111.99 21.5874 111.115 21.4166 110.31 21.06C109.651 20.7293 109.115 20.1967 108.78 19.54C108.415 18.748 108.24 17.8816 108.27 17.01H110.22C110.164 17.7563 110.401 18.4952 110.88 19.07C111.147 19.3172 111.463 19.5062 111.808 19.625C112.152 19.7438 112.517 19.7897 112.88 19.76C113.239 19.8116 113.605 19.7789 113.95 19.6646C114.294 19.5503 114.607 19.3576 114.864 19.1015C115.121 18.8455 115.315 18.5332 115.431 18.1893C115.546 17.8454 115.58 17.4793 115.53 17.12C115.546 16.737 115.449 16.3577 115.25 16.03C115.066 15.733 114.812 15.4857 114.51 15.31C114.135 15.1097 113.744 14.9424 113.34 14.81L113.12 14.74L112.9 14.68L112.74 14.63H112.59C111.858 14.4214 111.142 14.1573 110.45 13.84C109.881 13.5541 109.398 13.1228 109.05 12.59C108.629 11.8996 108.426 11.0977 108.47 10.29C108.443 9.45078 108.607 8.61634 108.95 7.85C109.252 7.22122 109.755 6.71104 110.38 6.4C111.123 6.04805 111.939 5.88 112.76 5.91001C113.582 5.88297 114.399 6.04371 115.15 6.38001C115.772 6.6796 116.276 7.17972 116.58 7.80001C116.924 8.53781 117.088 9.3465 117.06 10.16H115.11C115.16 9.49328 114.949 8.83324 114.52 8.32C114.283 8.10503 114.005 7.94088 113.702 7.83769C113.399 7.73449 113.079 7.69444 112.76 7.72001C112.44 7.69549 112.119 7.73896 111.818 7.84754C111.516 7.95613 111.241 8.12737 111.01 8.35C110.58 8.88208 110.369 9.55792 110.42 10.24C110.402 10.6877 110.528 11.1295 110.78 11.5C111.02 11.8314 111.34 12.0964 111.71 12.27C112.177 12.4894 112.662 12.6668 113.16 12.8H113.25H113.35H113.42H113.48C114.193 12.9878 114.889 13.2354 115.56 13.54C116.12 13.8183 116.591 14.2478 116.92 14.78C117.33 15.478 117.525 16.2817 117.48 17.09C117.508 17.9443 117.337 18.7934 116.98 19.57C116.644 20.2176 116.103 20.7349 115.44 21.04C114.628 21.3937 113.745 21.5578 112.86 21.52L112.87 21.56ZM102.02 19.56C102.329 19.5783 102.637 19.5317 102.927 19.4232C103.216 19.3146 103.48 19.1466 103.7 18.93C104.119 18.4311 104.33 17.7903 104.29 17.14V10.14C104.329 9.50038 104.113 8.87142 103.69 8.39001C103.471 8.17414 103.209 8.00655 102.922 7.89803C102.634 7.78952 102.327 7.7425 102.02 7.76C101.716 7.74155 101.412 7.7882 101.127 7.89684C100.842 8.00549 100.584 8.17363 100.37 8.39001C99.9544 8.87511 99.743 9.50233 99.78 10.14V17.14C99.7398 17.7903 99.951 18.4311 100.37 18.93C100.583 19.1451 100.84 19.3125 101.122 19.4211C101.405 19.5297 101.708 19.577 102.01 19.56H102.02ZM102.02 21.56C101.202 21.5851 100.391 21.4064 99.66 21.04C99.0142 20.7062 98.4895 20.178 98.16 19.53C97.8026 18.7852 97.6277 17.9659 97.65 17.14V10.22C97.6263 9.40685 97.8014 8.60018 98.16 7.87C98.494 7.23271 99.0183 6.71538 99.66 6.39001C100.398 6.04729 101.201 5.86973 102.015 5.86973C102.828 5.86973 103.632 6.04729 104.37 6.39001C105.014 6.71261 105.539 7.23068 105.87 7.87C106.229 8.60018 106.404 9.40685 106.38 10.22V17.22C106.402 18.0394 106.227 18.8522 105.87 19.59C105.543 20.2372 105.017 20.7628 104.37 21.09C103.636 21.4195 102.833 21.567 102.03 21.52L102.02 21.56ZM89.93 6.14001H96.93V7.95001H89.93V6.14001ZM91.54 4.07C91.4654 2.97735 91.8248 1.89938 92.54 1.07C92.9064 0.704106 93.3465 0.420362 93.8309 0.237604C94.3154 0.0548455 94.8332 -0.022741 95.35 0.0100036H96.96V2.01H95.37C95.1288 1.99375 94.887 2.03309 94.6634 2.12498C94.4397 2.21686 94.2401 2.35884 94.08 2.54C93.7492 2.96735 93.5856 3.50068 93.62 4.04V21.34H91.51L91.54 4.07ZM86.1 10.61C86.1599 9.85895 85.935 9.11285 85.47 8.52001C85.2168 8.27956 84.916 8.09482 84.587 7.9777C84.2581 7.86058 83.9082 7.81367 83.56 7.84001C83.2062 7.81222 82.8507 7.86633 82.5212 7.99813C82.1917 8.12993 81.897 8.33588 81.66 8.6C81.1911 9.27109 80.9685 10.0836 81.03 10.9L80.72 8.70001C80.9885 7.87071 81.488 7.13525 82.16 6.58001C82.7841 6.10103 83.5535 5.85043 84.34 5.87C84.8831 5.83035 85.428 5.91615 85.9326 6.12077C86.4372 6.32538 86.8879 6.64333 87.25 7.05001C87.9797 8.08783 88.3326 9.34401 88.25 10.61V21.34H86.14L86.1 10.61ZM78.92 6.14001H81.03V21.34H78.92V6.14001ZM75.86 21.34H73.75V0.0400101H75.86V21.34ZM63.37 11.37C63.4029 10.8537 63.2344 10.3447 62.9 9.95001C62.7226 9.77674 62.5107 9.64269 62.2781 9.55656C62.0456 9.47042 61.7975 9.43412 61.55 9.45001C61.3115 9.43433 61.0725 9.47095 60.8497 9.55732C60.6269 9.64369 60.4256 9.77771 60.26 9.95001C59.9373 10.3502 59.7766 10.857 59.81 11.37L59.53 8.75001C59.824 7.91735 60.3308 7.17612 61 6.6C61.6146 6.09919 62.3873 5.83334 63.18 5.85C63.748 5.81572 64.316 5.91658 64.8375 6.1443C65.359 6.37201 65.8191 6.7201 66.18 7.16001C66.9436 8.2404 67.3141 9.5497 67.23 10.87V21.3H63.37V11.37ZM55.99 9.13814e-06H59.81V21.3H55.99V9.13814e-06ZM47.87 21.52C46.9321 21.5364 45.9984 21.3909 45.11 21.09C44.3564 20.8272 43.6724 20.3963 43.11 19.83C42.5694 19.2687 42.1776 18.5812 41.97 17.83L45.08 16.22C45.3482 16.7813 45.7761 17.2509 46.31 17.57C46.8556 17.8885 47.4783 18.0511 48.11 18.04C48.6072 18.0633 49.1006 17.9417 49.53 17.69C49.6942 17.6026 49.8309 17.4712 49.9245 17.3104C50.0181 17.1497 50.065 16.966 50.06 16.78C50.0657 16.6326 50.0412 16.4855 49.9879 16.3479C49.9345 16.2103 49.8536 16.0851 49.75 15.98C49.5247 15.7713 49.2544 15.6174 48.96 15.53C48.65 15.43 48.2 15.32 47.62 15.19L47.24 15.09L46.83 15H46.75H46.64C45.9049 14.8213 45.1884 14.5736 44.5 14.26C43.9096 13.9719 43.411 13.5253 43.06 12.97C42.6424 12.2451 42.4411 11.4157 42.48 10.58C42.4592 9.70552 42.6844 8.84275 43.13 8.09001C43.5638 7.37499 44.2058 6.80971 44.97 6.47001C45.8692 6.0701 46.8462 5.87538 47.83 5.9C48.6809 5.88868 49.5272 6.02747 50.33 6.31001C51.0381 6.5652 51.6804 6.97515 52.21 7.51C52.7231 8.04705 53.0943 8.7035 53.29 9.42001L50.22 10.94C49.9926 10.4733 49.6481 10.0736 49.22 9.78001C48.7903 9.50564 48.2897 9.36311 47.78 9.37C47.3214 9.3464 46.866 9.45766 46.47 9.69001C46.337 9.77176 46.225 9.8835 46.1429 10.0163C46.0609 10.1491 46.011 10.2993 45.9974 10.4548C45.9838 10.6103 46.0068 10.7668 46.0646 10.9119C46.1223 11.0569 46.2132 11.1864 46.33 11.29C46.5803 11.4875 46.8651 11.6367 47.17 11.73C47.51 11.83 47.98 11.94 48.59 12.07H48.71H48.84H48.89H48.95C49.7596 12.2172 50.5532 12.4415 51.32 12.74C51.9566 13.0196 52.5009 13.4738 52.89 14.05C53.3667 14.8375 53.5934 15.751 53.54 16.67C53.5582 17.5671 53.3225 18.4511 52.86 19.22C52.3735 19.9625 51.6774 20.5438 50.86 20.89C49.9205 21.3133 48.9004 21.5282 47.87 21.52ZM34.52 13.52L37.31 11.31L42.18 21.31H37.94L34.52 13.52ZM29.6 -0.0299896H33.37V21.27H29.58L29.6 -0.0299896ZM31.71 15.19L37.54 6.07H41.54L32.09 19.91L31.71 15.19ZM19.57 21.49C18.9973 21.5321 18.4222 21.4523 17.8827 21.2558C17.3431 21.0593 16.8514 20.7506 16.44 20.35C15.6758 19.3963 15.3007 18.1888 15.39 16.97C15.3433 16.3168 15.437 15.6612 15.6646 15.0471C15.8923 14.4331 16.2487 13.8749 16.71 13.41C17.8172 12.5339 19.2115 12.1025 20.62 12.2H23.08L23.29 15.2H20.72C20.4749 15.1832 20.2289 15.2161 19.9969 15.2969C19.7649 15.3777 19.5516 15.5046 19.37 15.67C19.2047 15.8493 19.0784 16.061 18.9992 16.2917C18.92 16.5224 18.8896 16.767 18.91 17.01C18.9016 17.1983 18.936 17.3861 19.0104 17.5593C19.0849 17.7324 19.1976 17.8865 19.34 18.01C19.7117 18.2667 20.1593 18.3901 20.61 18.36C21.2249 18.3994 21.8385 18.2642 22.38 17.97C22.5758 17.8443 22.7345 17.6688 22.84 17.4614C22.9454 17.254 22.9938 17.0223 22.98 16.79L23.26 18.53C23.2508 19.1143 23.0584 19.6809 22.71 20.15C22.3688 20.5969 21.9125 20.9425 21.39 21.15C20.8125 21.3885 20.1947 21.5141 19.57 21.52V21.49ZM22.99 10.99C23.0042 10.7538 22.9658 10.5173 22.8776 10.2977C22.7894 10.0781 22.6536 9.88081 22.48 9.72001C22.0678 9.39886 21.5511 9.24208 21.03 9.28001C20.598 9.27376 20.1714 9.37697 19.79 9.58001C19.4216 9.77353 19.1162 10.0685 18.91 10.43L15.91 9.20001C16.1913 8.17517 16.8389 7.28917 17.73 6.71C18.7348 6.09022 19.9001 5.78063 21.08 5.82C22.113 5.78449 23.1401 5.98992 24.08 6.42001C24.8685 6.79333 25.5194 7.40566 25.94 8.17001C26.3907 9.01869 26.6146 9.96938 26.59 10.93V21.27H23.04L22.99 10.99ZM-0.0100098 -0.009993H3.82001V21.29H-0.0100098V-0.009993ZM2.22 17.67H6.13998C6.90286 17.717 7.65359 17.462 8.22998 16.96C8.48666 16.6971 8.6852 16.3833 8.81268 16.0387C8.94017 15.6941 8.99377 15.3266 8.97 14.96V6.37C8.99634 6.00315 8.94394 5.63491 8.81631 5.28997C8.68869 4.94503 8.48876 4.63136 8.22998 4.37C7.65259 3.8707 6.90163 3.61918 6.13998 3.67001H2.22V-0.009993H6.22C7.45326 -0.0414298 8.6775 0.20821 9.79999 0.72001C10.7625 1.16778 11.5576 1.91028 12.07 2.84001C12.6128 3.87138 12.8814 5.02495 12.85 6.19001V15.08C12.8808 16.2267 12.6192 17.3623 12.09 18.38C11.576 19.3123 10.7867 20.0631 9.82999 20.53C8.70121 21.0684 7.46 21.329 6.20999 21.29H2.20999L2.22 17.67Z" fill="#235F43"/>
<path d="M142.46 31.04H143.25V31.83H142.46V31.04ZM140.75 31.89C140.521 31.896 140.294 31.8444 140.09 31.74C139.911 31.6458 139.764 31.4993 139.67 31.32C139.568 31.1188 139.516 30.8957 139.52 30.67H140.25C140.246 30.8175 140.291 30.962 140.38 31.08C140.429 31.1273 140.487 31.1641 140.551 31.1881C140.614 31.2122 140.682 31.2231 140.75 31.22C140.817 31.2248 140.884 31.2148 140.946 31.1906C141.008 31.1664 141.064 31.1286 141.11 31.08C141.157 31.0269 141.192 30.9651 141.214 30.8981C141.237 30.8311 141.245 30.7604 141.24 30.69C141.247 30.5978 141.223 30.506 141.17 30.43C141.118 30.358 141.049 30.2997 140.97 30.26L140.64 30.12H140.54C140.368 30.0519 140.201 29.9717 140.04 29.88C139.9 29.7879 139.784 29.6647 139.7 29.52C139.606 29.3345 139.561 29.1278 139.57 28.92C139.561 28.6982 139.609 28.4777 139.71 28.28C139.796 28.1049 139.932 27.9589 140.1 27.86C140.29 27.7568 140.504 27.7051 140.72 27.71C140.932 27.7067 141.141 27.7547 141.33 27.85C141.502 27.9374 141.643 28.0776 141.73 28.25C141.826 28.4386 141.875 28.6482 141.87 28.86H141.13C141.137 28.7338 141.098 28.6094 141.02 28.51C140.982 28.4692 140.935 28.4373 140.883 28.4165C140.832 28.3958 140.776 28.3867 140.72 28.39C140.661 28.385 140.601 28.3953 140.547 28.4198C140.493 28.4443 140.446 28.4822 140.41 28.53C140.336 28.6422 140.301 28.7758 140.31 28.91C140.306 29.0081 140.33 29.1053 140.38 29.19C140.431 29.259 140.496 29.3169 140.57 29.36L140.88 29.48H140.94C141.127 29.5347 141.308 29.6085 141.48 29.7C141.629 29.7789 141.751 29.9008 141.83 30.05C141.94 30.2518 141.992 30.4803 141.98 30.71C141.986 30.9327 141.934 31.1532 141.83 31.35C141.732 31.5271 141.582 31.67 141.4 31.76C141.198 31.8575 140.974 31.9022 140.75 31.89ZM137.98 31.89C137.796 31.8893 137.618 31.8218 137.48 31.7C137.324 31.5682 137.215 31.3892 137.17 31.19L137.23 30.56C137.229 30.6752 137.246 30.7899 137.28 30.9C137.314 30.9913 137.373 31.0711 137.45 31.13C137.524 31.1785 137.611 31.203 137.7 31.2C137.769 31.2036 137.839 31.19 137.901 31.1604C137.964 31.1307 138.019 31.0859 138.06 31.03C138.148 30.8821 138.189 30.7116 138.18 30.54V29.01C138.19 28.8447 138.148 28.6805 138.06 28.54C138.019 28.4841 137.964 28.4393 137.901 28.4096C137.839 28.38 137.769 28.3663 137.7 28.37C137.611 28.367 137.524 28.3915 137.45 28.44C137.373 28.495 137.314 28.5715 137.28 28.66C137.245 28.7699 137.228 28.8847 137.23 29L137.14 28.43C137.212 28.2192 137.336 28.03 137.5 27.88C137.64 27.7539 137.821 27.6828 138.01 27.68C138.19 27.6778 138.365 27.734 138.51 27.84C138.658 27.9497 138.766 28.1039 138.82 28.28C138.897 28.5052 138.934 28.7421 138.93 28.98V30.57C138.934 30.8112 138.897 31.0513 138.82 31.28C138.755 31.4583 138.64 31.6143 138.49 31.73C138.341 31.8361 138.163 31.8922 137.98 31.89ZM136.48 27.76H137.23V33.48H136.48V27.76ZM134.88 27.76H135.63V31.83H134.88V27.76ZM134.88 26.17H135.63V26.92H134.88V26.17ZM133.28 29C133.293 28.8375 133.251 28.6753 133.16 28.54C133.114 28.485 133.056 28.4417 132.989 28.4139C132.923 28.3861 132.852 28.3745 132.78 28.38C132.71 28.3744 132.64 28.3861 132.575 28.4139C132.511 28.4418 132.454 28.4851 132.41 28.54C132.314 28.6809 132.268 28.8499 132.28 29.02L132.2 28.44C132.272 28.2188 132.404 28.0216 132.58 27.87C132.741 27.7468 132.938 27.68 133.14 27.68C133.265 27.6748 133.389 27.6983 133.504 27.7486C133.618 27.7988 133.719 27.8746 133.8 27.97C133.966 28.2063 134.047 28.4918 134.03 28.78V31.78H133.28V29ZM131.54 26.12H132.28V31.83H131.54V26.12ZM129.68 31.89C129.451 31.8947 129.224 31.8432 129.02 31.74C128.843 31.6429 128.697 31.4972 128.6 31.32C128.498 31.1188 128.446 30.8957 128.45 30.67H129.19C129.18 30.8181 129.227 30.9646 129.32 31.08C129.366 31.128 129.422 31.1654 129.485 31.1896C129.547 31.2138 129.613 31.2242 129.68 31.22C129.747 31.2256 129.814 31.2159 129.876 31.1916C129.939 31.1674 129.995 31.1292 130.04 31.08C130.087 31.0269 130.122 30.9651 130.144 30.8981C130.167 30.8311 130.175 30.7604 130.17 30.69C130.177 30.5978 130.153 30.506 130.1 30.43C130.048 30.358 129.979 30.2997 129.9 30.26C129.794 30.2049 129.683 30.1581 129.57 30.12H129.47C129.301 30.052 129.137 29.9718 128.98 29.88C128.836 29.7937 128.718 29.6691 128.64 29.52C128.542 29.3354 128.494 29.1287 128.5 28.92C128.496 28.6986 128.544 28.4794 128.64 28.28C128.729 28.1036 128.868 27.9574 129.04 27.86C129.226 27.7553 129.437 27.7034 129.65 27.71C129.862 27.7055 130.071 27.7536 130.26 27.85C130.432 27.9374 130.573 28.0776 130.66 28.25C130.756 28.4386 130.805 28.6482 130.8 28.86H130.06C130.067 28.7338 130.028 28.6094 129.95 28.51C129.912 28.4692 129.865 28.4373 129.813 28.4165C129.762 28.3958 129.706 28.3867 129.65 28.39C129.591 28.3868 129.532 28.3979 129.478 28.4222C129.424 28.4466 129.377 28.4836 129.34 28.53C129.266 28.6422 129.231 28.7758 129.24 28.91C129.236 29.0081 129.26 29.1053 129.31 29.19C129.365 29.2593 129.433 29.3171 129.51 29.36L129.81 29.48H129.88C130.065 29.5327 130.242 29.6065 130.41 29.7C130.56 29.781 130.685 29.9022 130.77 30.05C130.872 30.2546 130.92 30.4817 130.91 30.71C130.916 30.9327 130.864 31.1532 130.76 31.35C130.664 31.5256 130.518 31.6684 130.34 31.76C130.134 31.8563 129.907 31.9009 129.68 31.89ZM127.04 29C127.055 28.8359 127.008 28.6721 126.91 28.54C126.867 28.4844 126.81 28.4407 126.745 28.4127C126.681 28.3847 126.61 28.3735 126.54 28.38C126.469 28.3745 126.397 28.3861 126.331 28.4139C126.265 28.4417 126.206 28.485 126.16 28.54C126.07 28.6867 126.028 28.8581 126.04 29.03L125.96 28.44C126.032 28.2188 126.164 28.0216 126.34 27.87C126.497 27.7468 126.691 27.6799 126.89 27.68C127.015 27.6725 127.14 27.6949 127.255 27.7453C127.37 27.7958 127.471 27.8728 127.55 27.97C127.72 28.2041 127.802 28.4913 127.78 28.78V31.78H127.04V29ZM125.29 27.76H126.04V31.83H125.29V27.76ZM123.34 31.16C123.399 31.1635 123.458 31.1547 123.513 31.134C123.568 31.1133 123.618 31.0813 123.66 31.04C123.736 30.9397 123.775 30.8159 123.77 30.69V28.88C123.776 28.757 123.737 28.6359 123.66 28.54C123.62 28.4952 123.571 28.4602 123.515 28.4376C123.46 28.4151 123.4 28.4056 123.34 28.41C123.282 28.4072 123.224 28.4174 123.17 28.4399C123.117 28.4624 123.069 28.4966 123.03 28.54C122.953 28.6359 122.914 28.757 122.92 28.88V30.67C122.914 30.7929 122.954 30.9136 123.03 31.01C123.068 31.0628 123.12 31.1044 123.18 31.1308C123.24 31.1571 123.305 31.1672 123.37 31.16H123.34ZM123.34 31.89C123.122 31.8958 122.905 31.8477 122.71 31.75C122.536 31.6568 122.393 31.5141 122.3 31.34C122.203 31.1443 122.155 30.9282 122.16 30.71V28.85C122.154 28.6317 122.202 28.4153 122.3 28.22C122.391 28.0468 122.535 27.9069 122.71 27.82C122.907 27.7279 123.122 27.6802 123.34 27.6802C123.558 27.6802 123.773 27.7279 123.97 27.82C124.142 27.9074 124.283 28.0476 124.37 28.22C124.464 28.4163 124.508 28.6325 124.5 28.85V30.72C124.507 30.9373 124.462 31.153 124.37 31.35C124.278 31.519 124.139 31.6579 123.97 31.75C123.784 31.843 123.578 31.8909 123.37 31.89H123.34ZM120.64 27.76H121.37V31.83H120.62L120.64 27.76ZM120.64 26.17H121.37V26.92H120.62L120.64 26.17ZM118.23 27.76H119.98V28.46H118.23V27.76ZM119.6 31.85C119.466 31.8611 119.331 31.8426 119.205 31.796C119.079 31.7493 118.965 31.6756 118.87 31.58C118.701 31.3451 118.62 31.0586 118.64 30.77V26.57H119.37V30.77C119.361 30.8654 119.386 30.9609 119.44 31.04C119.467 31.0747 119.502 31.1021 119.542 31.1196C119.582 31.137 119.626 31.1441 119.67 31.14H119.96V31.85H119.6ZM116.21 31.85C116.072 31.8562 115.934 31.8336 115.805 31.7837C115.675 31.7338 115.558 31.6576 115.46 31.56C115.272 31.3145 115.183 31.0078 115.21 30.7C115.185 30.3397 115.296 29.9831 115.52 29.7C115.645 29.5783 115.794 29.4849 115.958 29.4262C116.122 29.3676 116.297 29.345 116.47 29.36H116.99L117.04 30.03H116.47C116.393 30.0232 116.316 30.0352 116.244 30.0648C116.173 30.0943 116.11 30.1407 116.06 30.2C115.958 30.3536 115.909 30.5361 115.92 30.72C115.91 30.7854 115.915 30.8522 115.936 30.9152C115.956 30.9781 115.991 31.0353 116.038 31.0821C116.085 31.1288 116.142 31.1639 116.205 31.1844C116.268 31.2049 116.335 31.2102 116.4 31.2C116.478 31.2064 116.556 31.1954 116.628 31.1677C116.701 31.14 116.766 31.0964 116.82 31.04C116.918 30.9079 116.965 30.7441 116.95 30.58L117.04 30.96C117.038 31.1314 117.004 31.301 116.94 31.46C116.886 31.5931 116.787 31.7028 116.66 31.77C116.525 31.8434 116.374 31.8844 116.22 31.89L116.21 31.85ZM116.95 28.85C116.957 28.7816 116.95 28.7124 116.928 28.6473C116.906 28.5821 116.869 28.5227 116.822 28.4731C116.774 28.4235 116.716 28.385 116.652 28.3602C116.588 28.3355 116.519 28.3252 116.45 28.33C116.39 28.329 116.33 28.341 116.275 28.3652C116.22 28.3893 116.17 28.4251 116.13 28.47C116.047 28.5782 116.007 28.714 116.02 28.85H115.29C115.279 28.693 115.301 28.5353 115.354 28.3872C115.408 28.2391 115.491 28.1038 115.6 27.99C115.838 27.7757 116.15 27.6642 116.47 27.68C116.698 27.6756 116.924 27.7235 117.13 27.82C117.303 27.9105 117.445 28.0495 117.54 28.22C117.638 28.4153 117.686 28.6317 117.68 28.85V31.85H116.95V28.85ZM114.2 30.75C114.191 30.8454 114.216 30.9409 114.27 31.02C114.296 31.0532 114.329 31.0797 114.368 31.0971C114.406 31.1145 114.448 31.1224 114.49 31.12H114.72V31.83H114.37C114.239 31.8361 114.109 31.8133 113.988 31.7632C113.867 31.7131 113.758 31.6369 113.67 31.54C113.489 31.3183 113.399 31.0356 113.42 30.75V26.12H114.17L114.2 30.75ZM111.47 31.89C111.237 31.8955 111.006 31.8404 110.8 31.73C110.613 31.6238 110.463 31.4633 110.37 31.27C110.268 31.0406 110.22 30.7908 110.23 30.54V29.11C110.221 28.8462 110.268 28.5836 110.37 28.34C110.449 28.1362 110.593 27.9641 110.78 27.85C110.977 27.7341 111.202 27.6752 111.43 27.68C111.66 27.6758 111.887 27.7309 112.09 27.84C112.278 27.9373 112.426 28.0962 112.51 28.29C112.612 28.5159 112.66 28.7624 112.65 29.01V30.08H110.75V29.47H111.94V29.02C111.952 28.8468 111.906 28.6746 111.81 28.53C111.765 28.4738 111.706 28.4291 111.64 28.3995C111.574 28.37 111.502 28.3565 111.43 28.36C111.36 28.3584 111.29 28.3739 111.228 28.4053C111.165 28.4366 111.111 28.4829 111.07 28.54C110.973 28.6989 110.927 28.8841 110.94 29.07V30.56C110.933 30.7248 110.982 30.8872 111.08 31.02C111.128 31.0764 111.188 31.1211 111.255 31.1506C111.323 31.1801 111.396 31.1935 111.47 31.19C111.534 31.1944 111.599 31.1851 111.659 31.1625C111.719 31.14 111.774 31.1047 111.819 31.0593C111.865 31.0138 111.9 30.9591 111.923 30.8988C111.945 30.8386 111.954 30.7742 111.95 30.71H112.67C112.68 30.8693 112.657 31.0289 112.602 31.1787C112.546 31.3284 112.461 31.4651 112.35 31.58C112.112 31.7933 111.799 31.9047 111.48 31.89H111.47ZM108.12 29.24L108.83 29.06L109.74 31.83H108.92L108.12 29.24ZM106.79 26.12H107.54V31.83H106.79V26.12ZM107.14 28.71H108.19C108.311 28.712 108.432 28.6846 108.54 28.63C108.631 28.5845 108.705 28.5108 108.75 28.42C108.803 28.3147 108.831 28.1981 108.83 28.08V27.5C108.831 27.3723 108.804 27.246 108.75 27.13C108.705 27.0337 108.632 26.9534 108.54 26.9C108.431 26.8488 108.311 26.8248 108.19 26.83H107.14V26.12H108.14C108.408 26.1136 108.674 26.1647 108.92 26.27C109.124 26.3637 109.295 26.5171 109.41 26.71C109.531 26.923 109.589 27.1654 109.58 27.41V28.08C109.59 28.331 109.532 28.5801 109.41 28.8C109.296 28.9987 109.126 29.1589 108.92 29.26C108.674 29.3653 108.408 29.4164 108.14 29.41H107.14V28.71ZM102.81 31.9C102.635 31.9058 102.462 31.8531 102.32 31.75C102.178 31.6472 102.07 31.5045 102.01 31.34C101.937 31.128 101.903 30.9043 101.91 30.68V28.94C101.904 28.7093 101.938 28.4792 102.01 28.26C102.07 28.0899 102.178 27.9406 102.32 27.83C102.462 27.7269 102.635 27.6742 102.81 27.68C102.996 27.6857 103.175 27.7525 103.32 27.87C103.483 28.0175 103.613 28.1982 103.7 28.4L103.61 28.96C103.611 28.8513 103.594 28.7432 103.56 28.64C103.523 28.556 103.465 28.4834 103.39 28.43C103.313 28.3801 103.222 28.3556 103.13 28.36C103.063 28.356 102.996 28.3685 102.935 28.3964C102.874 28.4243 102.821 28.4667 102.78 28.52C102.684 28.6456 102.637 28.8023 102.65 28.96V30.67C102.644 30.7435 102.652 30.8176 102.674 30.888C102.696 30.9583 102.732 31.0236 102.78 31.08C102.823 31.1302 102.877 31.1698 102.938 31.1958C102.998 31.2219 103.064 31.2335 103.13 31.23C103.221 31.2294 103.311 31.2053 103.39 31.16C103.464 31.1104 103.523 31.0412 103.56 30.96C103.594 30.8567 103.611 30.7487 103.61 30.64L103.67 31.19C103.607 31.3912 103.489 31.5711 103.33 31.71C103.189 31.8341 103.008 31.9018 102.82 31.9H102.81ZM103.11 33.48C102.952 33.4902 102.794 33.469 102.645 33.4175C102.495 33.366 102.358 33.2852 102.24 33.18C102.133 33.0673 102.05 32.9336 101.996 32.7874C101.943 32.6411 101.92 32.4854 101.93 32.33V32.23H102.67V32.33C102.664 32.4638 102.706 32.5954 102.79 32.7C102.886 32.7869 103.011 32.8335 103.14 32.83C103.204 32.8328 103.268 32.8228 103.328 32.8004C103.388 32.7781 103.443 32.7439 103.49 32.7C103.575 32.5963 103.618 32.4641 103.61 32.33V27.76H104.37V32.33C104.38 32.5455 104.332 32.7598 104.23 32.95C104.133 33.1219 103.986 33.2611 103.81 33.35C103.593 33.4452 103.357 33.4897 103.12 33.48H103.11ZM100.37 29C100.385 28.8359 100.338 28.6721 100.24 28.54C100.197 28.4844 100.14 28.4407 100.075 28.4127C100.011 28.3847 99.9402 28.3735 99.87 28.38C99.7985 28.3745 99.7267 28.3861 99.6606 28.4139C99.5945 28.4417 99.536 28.485 99.49 28.54C99.3995 28.6867 99.3575 28.8581 99.37 29.03L99.29 28.44C99.3621 28.2188 99.4935 28.0216 99.67 27.87C99.8269 27.7468 100.021 27.6799 100.22 27.68C100.345 27.6725 100.47 27.6949 100.585 27.7453C100.7 27.7958 100.801 27.8728 100.88 27.97C101.05 28.2041 101.132 28.4913 101.11 28.78V31.78H100.37V29ZM98.63 27.76H99.37V31.83H98.63V27.76ZM97.02 27.76H97.77V31.83H97.02V27.76ZM97.02 26.17H97.77V26.92H97.02V26.17ZM94.62 31.9C94.4476 31.9059 94.2784 31.853 94.14 31.75C93.9954 31.6501 93.8867 31.5063 93.83 31.34C93.7529 31.1287 93.7156 30.9049 93.72 30.68V28.94C93.7171 28.7087 93.7543 28.4786 93.83 28.26C93.8861 28.0879 93.9945 27.9376 94.14 27.83C94.2784 27.727 94.4476 27.6741 94.62 27.68C94.807 27.6818 94.9875 27.749 95.13 27.87C95.2961 28.0148 95.4262 28.1962 95.51 28.4L95.43 28.98C95.4311 28.8737 95.4107 28.7682 95.37 28.67C95.3369 28.5867 95.2816 28.514 95.21 28.46C95.1323 28.4112 95.0417 28.3869 94.95 28.39C94.883 28.386 94.8161 28.3985 94.7551 28.4264C94.6941 28.4543 94.6408 28.4967 94.6 28.55C94.5056 28.6802 94.4596 28.8394 94.47 29V30.67C94.4592 30.8183 94.5058 30.965 94.6 31.08C94.6434 31.129 94.6977 31.1672 94.7584 31.1915C94.8192 31.2158 94.8848 31.2255 94.95 31.22C95.0417 31.2231 95.1323 31.1987 95.21 31.15C95.2833 31.1021 95.3394 31.032 95.37 30.95C95.413 30.8525 95.4335 30.7465 95.43 30.64L95.48 31.21C95.4239 31.4122 95.3091 31.5931 95.15 31.73C95.0055 31.8453 94.8248 31.9055 94.64 31.9H94.62ZM95.43 26.12H96.17V31.83H95.43V26.12ZM92.69 30.75C92.684 30.8466 92.7123 30.9423 92.77 31.02C92.7952 31.0539 92.8287 31.0808 92.8671 31.0983C92.9056 31.1158 92.9479 31.1233 92.99 31.12H93.21V31.83H92.9C92.7677 31.8362 92.6356 31.8135 92.513 31.7634C92.3903 31.7133 92.2801 31.6371 92.19 31.54C92.0167 31.3146 91.9314 31.0337 91.95 30.75V26.12H92.69V30.75ZM90.35 27.75H91.09V31.82H90.37L90.35 27.75ZM90.35 26.16H91.09V26.91H90.37L90.35 26.16ZM87.85 30.67C87.8455 30.7319 87.8538 30.794 87.8745 30.8525C87.8951 30.911 87.9277 30.9647 87.97 31.01C88.0347 31.0818 88.1203 31.1315 88.2148 31.1519C88.3093 31.1723 88.4078 31.1625 88.4963 31.1237C88.5849 31.085 88.659 31.0193 88.7081 30.9361C88.7573 30.8528 88.7789 30.7562 88.77 30.66L88.82 31.16C88.7689 31.3596 88.6613 31.5401 88.51 31.68C88.3691 31.7946 88.1917 31.8549 88.01 31.85C87.882 31.8575 87.7539 31.8352 87.636 31.7849C87.518 31.7346 87.4132 31.6576 87.33 31.56C87.1618 31.306 87.0811 31.004 87.1 30.7V27.7H87.85V30.67ZM88.77 27.72H89.51V31.79H88.77V27.72ZM83.69 26.08H84.44V31.79H83.69V26.08ZM84.17 31.08H85.1C85.2404 31.0895 85.3793 31.0467 85.49 30.96C85.5386 30.9141 85.5764 30.858 85.6006 30.7958C85.6248 30.7335 85.6349 30.6666 85.63 30.6V29.85C85.634 29.723 85.6101 29.5967 85.56 29.48C85.5166 29.3847 85.446 29.3044 85.357 29.2492C85.268 29.1941 85.1647 29.1665 85.06 29.17H84.17V28.47H85.06C85.1307 28.4727 85.2011 28.4588 85.2654 28.4292C85.3296 28.3997 85.3861 28.3554 85.43 28.3C85.523 28.169 85.5688 28.0104 85.56 27.85V27.27C85.5647 27.2049 85.5551 27.1396 85.5319 27.0786C85.5088 27.0176 85.4727 26.9623 85.4261 26.9166C85.3794 26.871 85.3235 26.836 85.262 26.8141C85.2005 26.7923 85.135 26.784 85.07 26.79H84.17V26.08H85.06C85.291 26.0758 85.52 26.1237 85.73 26.22C85.9088 26.3046 86.0584 26.4403 86.16 26.61C86.2577 26.8017 86.3058 27.0149 86.3 27.23V27.83C86.3021 27.9902 86.275 28.1495 86.22 28.3C86.1686 28.4337 86.0823 28.5511 85.97 28.64C85.8555 28.7311 85.7224 28.796 85.58 28.83C85.7356 28.8487 85.8837 28.9072 86.01 29C86.1319 29.0925 86.2254 29.2172 86.28 29.36C86.3514 29.5168 86.3856 29.6879 86.38 29.86V30.67C86.3858 30.8883 86.3377 31.1047 86.24 31.3C86.1426 31.4719 85.9965 31.6111 85.82 31.7C85.6171 31.7964 85.3946 31.8443 85.17 31.84H84.17V31.08ZM80.62 31H81.37V31.79H80.59L80.62 31ZM78.9 31.85C78.6711 31.8547 78.4444 31.8032 78.24 31.7C78.0629 31.6029 77.9172 31.4572 77.82 31.28C77.7176 31.0789 77.6661 30.8557 77.67 30.63H78.37C78.3602 30.7782 78.4067 30.9245 78.5 31.04C78.5467 31.0875 78.6029 31.1246 78.665 31.1487C78.727 31.1728 78.7935 31.1835 78.86 31.18C78.9268 31.1863 78.9941 31.177 79.0566 31.1527C79.1191 31.1284 79.1751 31.0898 79.22 31.04C79.3163 30.9409 79.3702 30.8082 79.37 30.67C79.3746 30.5766 79.3463 30.4847 79.29 30.41C79.2394 30.3406 79.1746 30.2827 79.1 30.24L78.76 30.1H78.66C78.4911 30.032 78.3273 29.9518 78.17 29.86C78.0256 29.7737 77.9079 29.6491 77.83 29.5C77.7324 29.3154 77.6841 29.1087 77.69 28.9C77.6858 28.6786 77.7337 28.4594 77.83 28.26C77.9189 28.0835 78.0581 27.9374 78.23 27.84C78.4164 27.7367 78.627 27.6849 78.84 27.69C79.0549 27.6867 79.2674 27.7346 79.46 27.83C79.6276 27.9207 79.7636 28.0602 79.85 28.23C79.9465 28.4186 79.9945 28.6282 79.99 28.84H79.25C79.2612 28.7134 79.2216 28.5875 79.14 28.49C79.1019 28.4492 79.0553 28.4173 79.0034 28.3965C78.9516 28.3758 78.8958 28.3667 78.84 28.37C78.7822 28.3658 78.7243 28.3765 78.6718 28.401C78.6193 28.4255 78.574 28.463 78.54 28.51C78.4584 28.6191 78.4192 28.7542 78.43 28.89C78.4259 28.9881 78.4502 29.0853 78.5 29.17C78.5548 29.2393 78.6228 29.2971 78.7 29.34L79 29.46H79.07C79.2546 29.5126 79.4324 29.5865 79.6 29.68C79.7502 29.761 79.8748 29.8822 79.96 30.03C80.0618 30.2346 80.11 30.4617 80.1 30.69C80.1061 30.9127 80.0544 31.1332 79.95 31.33C79.8542 31.5056 79.7079 31.6484 79.53 31.74C79.3346 31.8386 79.1189 31.8899 78.9 31.89V31.85ZM75.78 29.67L76.21 29.1L77.55 31.79H76.74L75.78 29.67ZM74.64 26.08H75.37V31.79H74.63L74.64 26.08ZM74.99 30.31L76.61 27.72H77.37L75.01 31.24L74.99 30.31ZM72.99 28.96C73.0033 28.7975 72.961 28.6353 72.87 28.5C72.824 28.445 72.7655 28.4017 72.6994 28.3739C72.6333 28.3461 72.5615 28.3344 72.49 28.34C72.4199 28.3335 72.3492 28.3447 72.2846 28.3727C72.2199 28.4007 72.1633 28.4444 72.12 28.5C72.026 28.6455 71.9805 28.817 71.99 28.99L71.91 28.4C71.9821 28.1788 72.1136 27.9816 72.29 27.83C72.4469 27.7068 72.6406 27.6399 72.84 27.64C72.9664 27.6341 73.0925 27.6571 73.2086 27.7074C73.3247 27.7576 73.4279 27.8338 73.51 27.93C73.6759 28.1663 73.7569 28.4518 73.74 28.74V31.74H72.99V28.96ZM71.25 27.72H71.99V31.79H71.25V27.72ZM69.65 27.72H70.39V31.79H69.65V27.72ZM69.65 26.13H70.39V26.88H69.65V26.13ZM67.06 31.08H69.06V31.79H67.06V31.08ZM66.66 26.08H67.41V31.79H66.66V26.08ZM62.66 31.86C62.4876 31.8659 62.3184 31.813 62.18 31.71C62.0354 31.6101 61.9267 31.4664 61.87 31.3C61.7929 31.0887 61.7556 30.8649 61.76 30.64V28.9C61.7571 28.6687 61.7943 28.4386 61.87 28.22C61.9261 28.0479 62.0345 27.8976 62.18 27.79C62.3184 27.687 62.4876 27.6341 62.66 27.64C62.847 27.6418 63.0274 27.709 63.17 27.83C63.3361 27.9748 63.4662 28.1562 63.55 28.36L63.47 28.92C63.4734 28.8102 63.4529 28.7011 63.41 28.6C63.3769 28.5167 63.3216 28.444 63.25 28.39C63.1728 28.3401 63.0819 28.3156 62.99 28.32C62.9215 28.3152 62.8529 28.3273 62.7901 28.3552C62.7273 28.3831 62.6724 28.4259 62.63 28.48C62.5385 28.6079 62.4927 28.7629 62.5 28.92V30.67C62.4921 30.8179 62.5384 30.9636 62.63 31.08C62.6749 31.1304 62.7306 31.1701 62.7929 31.196C62.8553 31.222 62.9226 31.2336 62.99 31.23C63.0813 31.2294 63.1708 31.2053 63.25 31.16C63.3212 31.1098 63.3767 31.0405 63.41 30.96C63.4529 30.8589 63.4734 30.7497 63.47 30.64L63.52 31.19C63.4639 31.3922 63.3491 31.5731 63.19 31.71C63.0562 31.826 62.8869 31.893 62.71 31.9L62.66 31.86ZM62.97 33.44C62.6486 33.4601 62.3323 33.3522 62.09 33.14C61.984 33.0263 61.902 32.8925 61.8487 32.7465C61.7955 32.6005 61.7721 32.4452 61.78 32.29V32.19H62.52V32.29C62.5162 32.3572 62.5257 32.4245 62.548 32.488C62.5703 32.5515 62.605 32.61 62.65 32.66C62.6967 32.7039 62.7517 32.7381 62.8119 32.7604C62.872 32.7827 62.936 32.7928 63 32.79C63.0666 32.7957 63.1336 32.7881 63.1972 32.7674C63.2607 32.7468 63.3195 32.7137 63.37 32.67C63.4555 32.5663 63.4984 32.4341 63.49 32.3V27.73H64.23V32.3C64.2374 32.5165 64.1855 32.7308 64.08 32.92C63.9906 33.0979 63.8421 33.2393 63.66 33.32C63.4611 33.4198 63.2425 33.4745 63.02 33.48L62.97 33.44ZM60.23 28.96C60.2432 28.7975 60.2009 28.6353 60.11 28.5C60.0646 28.4443 60.0062 28.4006 59.9399 28.3727C59.8737 28.3448 59.8016 28.3336 59.73 28.34C59.66 28.3344 59.5896 28.346 59.5251 28.3739C59.4606 28.4018 59.4039 28.4451 59.36 28.5C59.2695 28.6467 59.2275 28.8181 59.24 28.99L59.15 28.4C59.226 28.1807 59.3568 27.9845 59.53 27.83C59.6907 27.7068 59.8875 27.64 60.09 27.64C60.2152 27.6325 60.3403 27.6549 60.455 27.7053C60.5698 27.7557 60.6709 27.8328 60.75 27.93C60.9159 28.1663 60.9969 28.4518 60.98 28.74V31.74H60.23V28.96ZM58.49 27.72H59.24V31.79H58.49V27.72ZM56.89 27.72H57.64V31.79H56.89V27.72ZM56.89 26.13H57.64V26.88H56.89V26.13ZM54.49 31.86C54.3148 31.8643 54.1428 31.8117 54 31.71C53.861 31.6066 53.7564 31.4638 53.7 31.3C53.6181 31.09 53.5807 30.8652 53.59 30.64V28.9C53.5815 28.6683 53.6189 28.4372 53.7 28.22C53.7567 28.0509 53.8609 27.9016 54 27.79C54.1428 27.6883 54.3148 27.6356 54.49 27.64C54.6762 27.6457 54.8554 27.7125 55 27.83C55.163 27.9754 55.2897 28.1569 55.37 28.36L55.29 28.94C55.2925 28.8303 55.272 28.7213 55.23 28.62C55.2013 28.5332 55.1443 28.4584 55.0682 28.4077C54.9921 28.357 54.9012 28.3331 54.81 28.34C54.7432 28.3368 54.6765 28.3497 54.6156 28.3775C54.5547 28.4054 54.5014 28.4474 54.46 28.5C54.3698 28.6323 54.3242 28.79 54.33 28.95V30.67C54.3239 30.8177 54.3699 30.9628 54.46 31.08C54.5039 31.1284 54.5582 31.1661 54.6189 31.1904C54.6795 31.2147 54.7449 31.2248 54.81 31.22C54.902 31.2258 54.9934 31.2012 55.07 31.15C55.1461 31.1052 55.203 31.034 55.23 30.95C55.2969 30.8682 55.3448 30.7726 55.37 30.67L55.43 31.24C55.3665 31.4412 55.2489 31.6211 55.09 31.76C54.9316 31.8759 54.7346 31.9261 54.54 31.9L54.49 31.86ZM55.29 26.08H56.04V31.79H55.37L55.29 26.08ZM52.56 30.71C52.5511 30.8054 52.5759 30.9009 52.63 30.98C52.6568 31.0147 52.692 31.0421 52.7322 31.0596C52.7724 31.077 52.8164 31.0841 52.86 31.08H53.08V31.79H52.77C52.6376 31.7969 52.5053 31.7745 52.3826 31.7244C52.2599 31.6743 52.1497 31.5976 52.06 31.5C51.8788 31.2783 51.7893 30.9956 51.81 30.71V26.08H52.56V30.71ZM50.21 27.71H50.96V31.78H50.21V27.71ZM50.21 26.12H50.96V26.87H50.21V26.12ZM47.75 30.67C47.7442 30.7312 47.7509 30.7929 47.7698 30.8514C47.7888 30.9098 47.8194 30.9638 47.86 31.01C47.9594 31.088 48.0839 31.1271 48.21 31.12C48.333 31.1265 48.4541 31.0873 48.55 31.01C48.628 30.9106 48.6671 30.7862 48.66 30.66L48.72 31.16C48.6612 31.3563 48.5547 31.5349 48.41 31.68C48.2682 31.7931 48.0914 31.8532 47.91 31.85C47.7819 31.8583 47.6536 31.8363 47.5355 31.786C47.4174 31.7356 47.3127 31.6582 47.23 31.56C47.0618 31.306 46.9811 31.004 47 30.7V27.7H47.75V30.67ZM48.66 27.72H49.37V31.79H48.62L48.66 27.72ZM43.59 26.08H44.37V31.79H43.62L43.59 26.08ZM44.06 31.08H45C45.1404 31.0895 45.2793 31.0467 45.39 30.96C45.4365 30.9126 45.4729 30.8563 45.497 30.7944C45.5211 30.7325 45.5323 30.6663 45.53 30.6V29.85C45.534 29.723 45.5101 29.5967 45.46 29.48C45.4129 29.3883 45.3443 29.3094 45.26 29.25C45.1686 29.1979 45.0652 29.1703 44.96 29.17H44.06V28.47H44.96C45.0294 28.4736 45.0986 28.46 45.1614 28.4304C45.2243 28.4007 45.2788 28.3559 45.32 28.3C45.4178 28.1714 45.4641 28.0109 45.45 27.85V27.27C45.4545 27.2058 45.4451 27.1414 45.4225 27.0812C45.4 27.0209 45.3648 26.9662 45.3193 26.9207C45.2738 26.8752 45.2191 26.84 45.1588 26.8175C45.0986 26.7949 45.0342 26.7855 44.97 26.79H44.06V26.08H44.96C45.191 26.0758 45.42 26.1237 45.63 26.22C45.8092 26.3001 45.9569 26.4372 46.05 26.61C46.1555 26.7992 46.2074 27.0135 46.2 27.23V27.83C46.2039 27.9913 46.1732 28.1516 46.11 28.3C46.0625 28.4358 45.9754 28.5542 45.86 28.64C45.7477 28.7345 45.6137 28.7998 45.47 28.83C45.6261 28.8468 45.7746 28.9056 45.9 29C46.0248 29.0919 46.1217 29.2165 46.18 29.36C46.2431 29.519 46.2737 29.689 46.27 29.86V30.67C46.2807 30.8888 46.2324 31.1064 46.13 31.3C46.0418 31.4753 45.8975 31.6161 45.72 31.7C45.514 31.7975 45.2879 31.8455 45.06 31.84H44.06V31.08Z" fill="#235F43"/>
</g>
<defs>
<clipPath id="clip0_2_2">
<rect width="143.24" height="36.6" fill="white"/>
</clipPath>
</defs>
</svg>
