<svg width="363" height="324" viewBox="0 0 363 324" fill="none" xmlns="http://www.w3.org/2000/svg">
<rect width="363" height="324" fill="white"/>
<path d="M186.5 198C160.266 198 139 179.42 139 156.5C139 133.58 160.266 115 186.5 115C212.733 115 234 133.58 234 156.5C234 179.42 212.733 198 186.5 198ZM205.5 139.9H199.087V156.5H205.5V139.9ZM173.894 146.994L202.674 179.482L207.681 176.127L175.493 139.9H167.5V173.087H173.894V146.994Z" fill="black"/>
<path d="M232.636 203.667V201.333H236.045V202.5H240.591V200.167H234.909C233.659 200.167 232.636 199.117 232.636 197.833V194.333C232.636 193.05 233.659 192 234.909 192H241.727C242.977 192 244 193.05 244 194.333V196.667H240.591V195.5H236.045V197.833H241.727C242.977 197.833 244 198.883 244 200.167V203.667C244 204.95 242.977 206 241.727 206H234.909C233.659 206 232.636 204.95 232.636 203.667ZM225.818 192V202.5H222.409V200.167H219V202.5C219 204.437 220.523 206 222.409 206H225.818C227.705 206 229.227 204.437 229.227 202.5V192H225.818Z" fill="black"/>
</svg>
