<svg width="363" height="324" viewBox="0 0 363 324" fill="none" xmlns="http://www.w3.org/2000/svg">
<rect width="363" height="324" fill="white"/>
<path d="M125.588 152.421C125.897 152.617 125.939 153.112 125.714 153.906C125.194 155.657 125.584 156.944 126.883 157.767L140.23 166.22C143.039 168 145.327 169.397 147.094 170.412C147.766 170.803 148.039 171.193 147.914 171.582C147.698 172.225 147.109 172.511 146.148 172.44C144.581 172.314 140.149 172.905 132.852 174.214C126.762 175.316 120.996 176.467 115.554 177.667C115.372 177.708 115.271 177.8 115.25 177.943C115.233 178.106 115.336 178.258 115.559 178.399L130.78 188.039C132.414 189.074 133.907 188.866 135.258 187.416C135.826 186.822 136.282 186.634 136.629 186.854C137.099 187.152 137.073 187.672 136.55 188.416C134.561 191.283 133.111 193.572 132.2 195.284C131.9 195.84 131.515 195.969 131.045 195.671C130.785 195.506 130.768 195.123 130.993 194.52C131.374 193.426 131.474 192.597 131.295 192.032C131.115 191.467 130.567 190.895 129.651 190.315L113.223 179.91C112.505 179.456 111.861 179.255 111.289 179.309C110.762 179.375 110.054 179.698 109.166 180.28C108.497 180.706 108.022 180.812 107.741 180.6C107.43 180.351 107.477 179.99 107.88 179.517C109.122 178.05 110.053 176.689 110.674 175.435C110.996 174.789 111.57 174.39 112.395 174.236L138.824 169.179C139.192 169.118 139.4 169.05 139.447 168.976C139.51 168.877 139.374 168.721 139.04 168.51L125.619 160.01C124.047 159.014 122.598 159.249 121.271 160.715C120.804 161.234 120.446 161.415 120.199 161.258C119.679 160.929 119.618 160.518 120.017 160.025C121.526 158.137 122.935 155.856 124.246 153.184C124.471 152.72 124.641 152.437 124.757 152.337C124.952 152.166 125.229 152.194 125.588 152.421ZM154.309 143.745C156.462 145.108 157.782 147.063 158.268 149.607C158.742 152.144 158.231 154.595 156.734 156.958C155.237 159.322 153.397 160.775 151.215 161.318C149.09 161.827 146.969 161.411 144.853 160.071C142.662 158.684 141.347 156.681 140.908 154.062C140.487 151.524 140.99 149.128 142.416 146.876C143.945 144.463 145.786 142.993 147.939 142.467C150.032 141.955 152.156 142.381 154.309 143.745ZM153.372 147.729C151.429 146.498 149.553 145.969 147.745 146.142C145.989 146.313 144.665 147.104 143.771 148.515C142.94 149.826 142.727 151.191 143.13 152.608C143.52 154.017 144.378 155.141 145.702 155.979C147.83 157.327 149.794 157.895 151.594 157.682C153.247 157.481 154.528 156.663 155.437 155.227C156.299 153.866 156.53 152.503 156.128 151.139C155.726 149.775 154.807 148.638 153.372 147.729ZM172.997 126.763C173.14 126.784 173.236 126.81 173.285 126.841C173.545 127.006 173.572 127.908 173.367 129.546C173.123 131.437 172.918 132.513 172.754 132.773C172.613 132.996 172.077 133.02 171.146 132.847C170.211 132.654 169.708 132.613 169.638 132.724C169.645 132.712 169.527 133.625 169.281 135.463C169.031 137.282 168.675 138.556 168.212 139.286C167.178 140.919 165.693 141.964 163.757 142.42C161.441 142.982 159.021 142.464 156.497 140.865C154.381 139.525 153.096 137.515 152.643 134.835C152.251 132.471 152.552 130.503 153.547 128.931C154.253 127.818 155.238 126.577 156.502 125.211C156.894 124.783 156.905 124.452 156.533 124.216L150.185 120.196C149.467 119.741 148.85 119.593 148.334 119.751C147.995 119.849 147.426 120.226 146.629 120.882C146.23 121.184 145.863 121.23 145.529 121.018C145.219 120.822 145.159 120.411 145.348 119.785C145.587 118.914 145.769 117.806 145.891 116.462C145.979 115.338 146.085 114.677 146.211 114.479C146.501 114.022 146.961 113.993 147.592 114.392C147.58 114.384 148.187 114.795 149.413 115.624C150.627 116.445 151.822 117.227 152.998 117.972L169.872 128.659C170.577 129.105 171.129 129.013 171.529 128.382C171.678 128.147 171.841 127.808 172.017 127.365C172.217 126.885 172.544 126.684 172.997 126.763ZM167.526 131.335L160.881 127.126C160.336 126.781 159.468 126.907 158.275 127.504C157.005 128.139 155.991 129.057 155.23 130.257C153.592 132.844 154.37 135.148 157.562 137.17C159.27 138.252 161.056 138.663 162.919 138.404C164.782 138.145 166.153 137.323 167.031 135.937C167.43 135.305 167.69 134.43 167.81 133.309C167.93 132.189 167.836 131.531 167.526 131.335ZM181.914 109.809C182.446 110.146 182.654 111.283 182.537 113.22C182.381 115.41 181.758 117.365 180.668 119.085C179.485 120.954 177.877 122.138 175.845 122.636C173.683 123.175 171.519 122.758 169.354 121.386C166.903 119.834 165.418 117.827 164.897 115.365C164.412 113.064 164.824 110.88 166.133 108.813C166.909 107.588 168.024 106.69 169.478 106.12C170.774 105.606 171.966 105.476 173.053 105.731C173.433 105.816 173.712 105.758 173.89 105.559C174.156 105.277 174.474 105.253 174.845 105.488C175.353 105.809 175.402 106.69 174.993 108.13L172.116 118.298C175.414 119.607 177.843 119.03 179.402 116.567C180.304 115.144 180.811 113.193 180.923 110.716C180.935 110.342 181.023 110.025 181.188 109.765C181.313 109.567 181.555 109.582 181.914 109.809ZM171.684 109.494C171.003 109.063 170.233 108.965 169.373 109.2C168.508 109.416 167.821 109.926 167.312 110.73C165.87 113.007 166.788 115.184 170.068 117.261L170.513 117.543L172.189 111.53C172.471 110.564 172.303 109.886 171.684 109.494Z" fill="black"/>
<path d="M207.688 192.549C207.255 193.15 206.682 193.663 206.05 194.011L199.364 197.594C198.385 198.141 198.543 197.642 198.663 197.32C199.14 195.989 199.235 195.717 199.527 194.143C199.558 193.975 199.697 193.829 199.854 193.752L204.994 191.002C205.178 190.903 205.333 190.688 205.362 190.491L209.416 168.256C209.452 168.051 209.375 167.845 209.227 167.739L193.465 156.373C193.309 156.261 193.098 156.259 192.9 156.361L173.098 167.227C172.914 167.326 172.766 167.532 172.73 167.738L168.689 189.955C168.646 190.169 168.723 190.375 168.879 190.486L184.634 201.847C184.781 201.953 185 201.961 185.183 201.848L190.612 198.87C193.402 197.136 193.297 194.772 192.092 193.903L176.536 182.687C176.315 182.527 176.3 182.189 176.493 181.92L178.006 179.823C178.193 179.564 178.524 179.462 178.746 179.622L194.309 190.844C197.015 192.795 197.275 195.707 195.033 198.816C194.342 199.775 193.799 200.528 191.429 202.007L186.239 204.857C184.953 205.564 183.521 205.54 182.494 204.799L166.739 193.439C165.718 192.703 165.236 191.347 165.501 189.903L169.542 167.686C169.81 166.286 170.811 164.897 172.049 164.209L191.872 153.345C193.158 152.638 194.59 152.662 195.617 153.403L211.373 164.764C212.393 165.499 212.868 166.85 212.61 168.299L208.557 190.534C208.427 191.244 208.127 191.94 207.688 192.549ZM201.789 167.987C198.839 165.86 196.311 167.715 192.092 172.396C187.821 177.135 187.158 177.447 186.167 176.732C185.347 176.141 184.569 174.913 187.316 171.104C189.765 167.707 191.275 166.89 193.543 167.735C193.753 167.818 194.028 167.717 194.189 167.493L195.74 165.342C195.837 165.208 195.883 165.05 195.867 164.902C195.85 164.754 195.771 164.629 195.654 164.558C192.154 162.539 188.745 164.071 184.92 169.377C181.515 174.099 181.127 178.097 183.885 180.085C186.872 182.239 189.722 180.031 193.355 175.772C197.701 170.665 198.662 170.718 199.542 171.352C201.065 172.451 200.643 174.407 198.13 177.893C194.97 182.276 193.369 182.579 191.34 181.606C191.122 181.503 190.839 181.599 190.665 181.841L189.12 183.983C188.926 184.252 188.955 184.586 189.17 184.74C191.469 186.398 195.304 186.862 200.531 179.612C204.298 174.373 204.761 170.13 201.789 167.987Z" fill="black"/>
</svg>
