<svg width="363" height="324" viewBox="0 0 363 324" fill="none" xmlns="http://www.w3.org/2000/svg">
<rect width="363" height="324" fill="white"/>
<path d="M204.335 151.958C219.034 182.673 217.767 212.308 203.961 218.915C190.154 225.523 166.272 207.901 151.581 177.204C136.882 146.488 138.149 116.854 151.956 110.246C165.762 103.639 189.644 121.26 204.335 151.958ZM207.26 150.558C192.106 118.893 166.706 99.4869 150.515 107.236C134.323 114.984 133.503 146.938 148.656 178.604C163.81 210.269 189.21 229.675 205.401 221.926C221.593 214.177 222.414 182.223 207.26 150.558ZM171.578 145.213C163.849 147.172 162.188 141.822 159.246 135.675L172.713 132.248C175.972 139.058 178.898 143.34 171.578 145.213ZM142.45 132.547L145.597 139.124L154.143 136.95C157.668 144.316 159.333 149.135 165.204 151.523C171.621 154.201 179.638 151.861 181.769 146.745C182.887 144.074 182.507 140.82 180.689 137.021L174.625 124.351L142.45 132.547ZM195.564 148.028L198.694 154.569L190.148 156.743C192.85 162.388 195.754 167.429 194.7 171.039C193.602 174.824 189.964 175.001 174.297 178.975L171.124 172.344C186.269 168.488 187.667 168.458 188.231 166.955C188.778 165.504 187.514 163.399 184.967 158.077L166.536 162.757L163.406 156.216L195.564 148.028ZM196.174 196.609C188.332 198.599 186.707 193.056 183.842 187.071L197.309 183.644C200.585 190.489 203.494 194.735 196.174 196.609ZM167.046 183.943L170.202 190.537L178.748 188.364C182.453 196.105 184.067 200.597 189.809 202.936C196.226 205.614 204.243 203.275 206.374 198.159C207.492 195.487 207.112 192.233 205.293 188.434L199.23 175.765L167.046 183.943Z" fill="black"/>
</svg>
