<svg width="363" height="324" viewBox="0 0 363 324" fill="none" xmlns="http://www.w3.org/2000/svg">
<rect width="363" height="324" fill="white"/>
<path d="M220.283 136.026C218.975 135.605 217.667 135.206 216.359 134.831C216.577 133.964 216.771 133.097 216.965 132.23C219.944 118.262 217.982 107.036 211.37 103.333C205.001 99.7941 194.611 103.474 184.1 112.332C183.059 113.2 182.041 114.114 181.073 115.028C180.419 114.418 179.741 113.809 179.062 113.223C168.043 103.755 156.999 99.7706 150.388 103.497C144.042 107.059 142.153 117.629 144.817 130.847C145.084 132.16 145.374 133.449 145.713 134.761C144.163 135.183 142.637 135.652 141.209 136.144C128.276 140.479 119 147.323 119 154.401C119 161.713 128.881 169.048 142.323 173.501C143.413 173.853 144.502 174.204 145.616 174.509C145.253 175.915 144.938 177.298 144.648 178.727C142.105 191.734 144.091 202.046 150.436 205.585C156.975 209.241 167.97 205.492 178.675 196.422C179.523 195.695 180.37 194.945 181.218 194.148C182.284 195.156 183.398 196.117 184.512 197.054C194.877 205.679 205.122 209.171 211.443 205.632C217.982 201.976 220.113 190.891 217.352 177.391C217.134 176.36 216.892 175.306 216.626 174.228C217.401 174.017 218.152 173.782 218.902 173.548C232.877 169.072 243 161.83 243 154.401C243 147.299 233.458 140.409 220.283 136.026ZM187.515 116.129C196.524 108.536 204.928 105.559 208.755 107.692C212.848 109.965 214.422 119.152 211.855 131.222C211.685 132.019 211.516 132.792 211.298 133.566C205.921 132.394 200.472 131.55 194.998 131.081C191.85 126.722 188.411 122.551 184.681 118.637C185.626 117.77 186.546 116.949 187.515 116.129ZM159.494 166.564C160.729 168.603 161.988 170.642 163.32 172.634C159.542 172.236 155.788 171.65 152.083 170.876C153.148 167.501 154.48 164.009 156.03 160.447C157.145 162.509 158.283 164.548 159.494 166.564ZM152.155 138.37C155.643 137.62 159.348 137.011 163.199 136.542C161.916 138.487 160.656 140.479 159.47 142.495C158.283 144.487 157.12 146.526 156.03 148.588C154.505 145.096 153.221 141.675 152.155 138.37ZM158.791 154.518C160.39 151.283 162.134 148.12 163.974 145.003C165.815 141.886 167.801 138.862 169.884 135.886C173.516 135.628 177.222 135.487 181 135.487C184.778 135.487 188.508 135.628 192.116 135.886C194.175 138.839 196.137 141.862 198.002 144.956C199.866 148.049 201.61 151.213 203.257 154.424C201.634 157.658 199.891 160.845 198.026 163.986C196.185 167.103 194.223 170.126 192.165 173.126C188.556 173.384 184.802 173.501 181 173.501C177.198 173.501 173.516 173.384 169.956 173.173C167.849 170.197 165.863 167.15 163.998 164.033C162.134 160.916 160.414 157.752 158.791 154.518ZM202.53 166.517C203.766 164.455 204.928 162.369 206.066 160.26C207.616 163.658 208.973 167.103 210.159 170.642C206.405 171.462 202.603 172.095 198.777 172.517C200.084 170.548 201.32 168.533 202.53 166.517ZM206.018 148.588C204.88 146.526 203.717 144.464 202.506 142.448C201.32 140.456 200.084 138.487 198.801 136.542C202.7 137.011 206.43 137.644 209.917 138.417C208.803 141.886 207.495 145.26 206.018 148.588ZM181.048 122.223C183.591 124.894 185.989 127.707 188.217 130.613C183.422 130.402 178.602 130.402 173.807 130.613C176.18 127.589 178.627 124.777 181.048 122.223ZM152.955 107.856C157.023 105.559 166.057 108.84 175.575 116.996C176.18 117.512 176.786 118.074 177.416 118.637C173.662 122.551 170.198 126.722 167.026 131.081C161.552 131.55 156.127 132.37 150.751 133.519C150.436 132.324 150.17 131.105 149.903 129.886C147.627 118.543 149.128 109.989 152.955 107.856ZM147.021 169.634C146.004 169.353 145.011 169.048 144.018 168.72C138.859 167.15 132.998 164.666 128.76 161.408C126.314 159.767 124.667 157.236 124.207 154.401C124.207 150.112 131.86 144.628 142.904 140.901C144.284 140.433 145.689 140.011 147.094 139.612C148.741 144.698 150.727 149.69 153.027 154.518C150.702 159.416 148.692 164.478 147.021 169.634ZM175.26 192.602C171.264 196.14 166.638 198.953 161.601 200.875C158.912 202.117 155.813 202.234 153.052 201.179C149.201 199.023 147.602 190.75 149.782 179.618C150.048 178.305 150.339 176.993 150.678 175.704C156.103 176.829 161.577 177.602 167.123 178.001C170.32 182.383 173.831 186.578 177.585 190.516C176.81 191.242 176.035 191.945 175.26 192.602ZM181.194 186.907C178.723 184.329 176.253 181.469 173.855 178.399C176.18 178.493 178.578 178.54 181 178.54C183.495 178.54 185.941 178.493 188.362 178.376C186.134 181.352 183.737 184.188 181.194 186.907ZM212.848 193.937C212.63 196.797 211.177 199.468 208.852 201.273C205.001 203.429 196.791 200.617 187.927 193.258C186.909 192.414 185.892 191.5 184.851 190.563C188.556 186.602 191.971 182.407 195.071 178.001C200.617 177.556 206.139 176.735 211.588 175.54C211.83 176.501 212.048 177.462 212.242 178.399C213.429 183.461 213.623 188.735 212.848 193.937ZM217.255 168.743C216.577 168.954 215.899 169.165 215.197 169.353C213.502 164.244 211.419 159.252 209.021 154.401C211.346 149.62 213.308 144.698 214.955 139.659C216.214 140.011 217.425 140.386 218.588 140.761C229.873 144.51 237.793 150.088 237.793 154.354C237.793 158.947 229.341 164.877 217.255 168.743ZM181 165.228C187.127 165.228 192.092 160.424 192.092 154.494C192.092 148.565 187.127 143.76 181 143.76C174.873 143.76 169.908 148.565 169.908 154.494C169.908 160.424 174.873 165.228 181 165.228Z" fill="black"/>
</svg>
