<svg width="889" height="1055" viewBox="0 0 889 1055" fill="none" xmlns="http://www.w3.org/2000/svg">
<path d="M637.6 654.297C582.235 685.079 517.991 696.234 454.871 686.024C391.751 675.813 333.297 644.812 288.61 597.846C243.923 550.88 215.512 490.585 207.799 426.349C200.086 362.114 213.505 297.542 245.966 242.688C278.427 187.833 328.109 145.775 387.276 123.061C446.442 100.347 511.774 98.2526 573.099 117.103C634.423 135.954 688.299 174.691 726.338 227.285C764.377 279.879 784.444 343.377 783.415 407.893L494.564 397.028L637.6 654.297Z" fill="#23D2A0"/>
<path d="M230.078 388.924C280.833 351.077 343.594 332.302 408.587 335.524C473.581 338.746 537.158 363.783 589.419 406.736C641.68 449.69 679.692 508.149 697.534 573.01C715.377 637.872 712.05 705.494 688.07 765.349C664.091 825.203 620.805 873.929 564.954 903.939C509.102 933.949 443.82 943.559 379.273 931.272C314.726 918.985 254.537 885.491 208.079 836.005C161.62 786.52 131.5 723.82 122.409 657.671L414.183 635.823L230.078 388.924Z" fill="#23D2A0"/>
</svg>
