<svg width="444" height="705" viewBox="0 0 444 705" fill="none" xmlns="http://www.w3.org/2000/svg">
<path d="M195.992 353.659C173.406 353.439 151.085 348.669 130.304 339.621C109.523 330.574 90.6891 317.425 74.8775 300.927C59.0658 284.429 46.586 264.905 38.1506 243.468C29.7152 222.032 25.4895 199.103 25.7147 175.992C25.9399 152.88 30.6116 130.038 39.463 108.77C48.3144 87.5021 61.1723 68.2244 77.3024 52.0376C93.4326 35.8509 112.519 23.0722 133.472 14.4311C154.425 5.79001 176.835 1.45576 199.421 1.67582L197.707 177.667L195.992 353.659Z" fill="#E20714"/>
<path d="M242.075 352.036C264.662 352.041 287.027 356.598 307.893 365.448C328.759 374.297 347.718 387.265 363.686 403.611C379.654 419.958 392.32 439.363 400.959 460.718C409.598 482.073 414.042 504.96 414.037 528.073C414.032 551.186 409.579 574.071 400.93 595.422C392.282 616.774 379.608 636.173 363.633 652.513C347.658 668.853 328.694 681.813 307.824 690.653C286.955 699.494 264.587 704.041 242 704.036L242.037 528.036L242.075 352.036Z" fill="#E20714"/>
<ellipse cx="329.5" cy="122" rx="114.5" ry="122" fill="#E20714"/>
<ellipse cx="114.5" cy="582" rx="114.5" ry="122" fill="#E20714"/>
</svg>
