<svg width="363" height="324" viewBox="0 0 363 324" fill="none" xmlns="http://www.w3.org/2000/svg">
<rect width="363" height="324" fill="white"/>
<path d="M135.827 111.241C121.142 120.506 115.765 138.478 123.859 151.307C131.947 164.127 150.488 167.022 165.173 157.758C179.858 148.494 185.229 130.513 177.141 117.692C169.047 104.863 150.512 101.977 135.827 111.241ZM126.544 149.613C124.633 146.584 123.558 143.237 123.251 139.799L151.922 159.916C141.788 161.564 131.763 157.885 126.544 149.613ZM163.694 155.413C161.341 156.898 158.885 158.028 156.388 158.83L152.073 136.064L170.543 149.034C170.661 149.104 170.774 149.164 170.898 149.217C168.896 151.542 166.487 153.651 163.694 155.413ZM147.615 122.619C149.013 121.645 150.23 120.694 150.23 120.694C151.436 119.749 150.239 118.184 148.991 119.063C148.991 119.063 145.279 121.772 142.776 123.351C140.423 124.835 136.304 127.067 136.304 127.067C134.974 127.814 135.912 129.635 137.243 128.887C137.243 128.887 138.55 128.246 139.881 127.498L149.241 134.075L152.654 151.103L129.643 133.957C131.041 132.983 132.258 132.032 132.258 132.032C133.464 131.087 132.267 129.522 131.019 130.401C131.019 130.401 127.307 133.11 124.804 134.689C124.352 134.974 123.82 135.297 123.239 135.637C123.946 127.259 128.938 118.865 137.306 113.586C143.537 109.655 150.533 108.152 156.945 108.866C156.832 108.924 156.729 108.976 156.622 109.044C154.269 110.528 153.734 113.37 154.947 115.292C156.036 117.018 158.092 117.753 160.394 118.713C162.183 119.525 164.377 120.645 166.01 123.234C167.14 125.025 167.663 127.592 168.449 131.147L170.46 139.62L147.615 122.619ZM173.944 144.975L169.609 121.893C169.092 118.05 168.051 115.377 166.708 113.248C166.223 112.479 165.72 111.8 165.192 111.202C168.943 113.005 172.16 115.748 174.456 119.387C179.325 127.105 178.782 136.861 173.944 144.975Z" fill="black"/>
<path d="M135.732 191.405C135.912 191.748 135.728 192.185 135.182 192.714C134.595 193.289 134.373 194.292 134.515 195.722C135.161 202.503 135.843 208.958 136.559 215.087C136.619 215.595 136.398 216.083 135.897 216.551C135.877 216.587 135.847 216.615 135.806 216.636C135.523 216.784 135.163 216.586 134.726 216.043C133.113 214.083 129.139 210.579 122.804 205.531C123.196 209.362 123.806 214.62 124.635 221.307C124.704 221.811 124.499 222.291 124.017 222.747C123.982 222.778 123.947 222.81 123.912 222.841C123.629 222.988 123.274 222.788 122.847 222.24C121.404 220.41 116.301 216.036 107.54 209.118C106.641 208.405 105.626 208.196 104.494 208.49C103.942 208.637 103.618 208.62 103.523 208.438C103.301 208.014 103.419 207.709 103.874 207.522C105.513 206.847 107.413 205.721 109.572 204.145C109.934 203.879 110.179 203.745 110.306 203.743C110.424 203.746 110.563 203.866 110.725 204.103C110.881 204.278 110.758 204.645 110.354 205.202C109.877 205.863 109.746 206.4 109.962 206.814C110.057 206.996 110.213 207.184 110.43 207.379C112.837 209.529 116.669 212.947 121.927 217.631C122.098 217.786 122.244 217.832 122.365 217.769C122.476 217.711 122.517 217.568 122.487 217.339L120.859 203.982C120.524 203.733 120.049 203.377 119.434 202.914C118.676 202.346 117.726 202.089 116.585 202.145C116.01 202.175 115.685 202.081 115.61 201.863C115.423 201.382 115.548 201.067 115.983 200.917C117.924 200.277 119.945 199.261 122.046 197.87C122.429 197.618 122.682 197.499 122.804 197.513C122.932 197.51 123.064 197.641 123.201 197.903C123.333 198.156 123.183 198.497 122.752 198.928C121.926 199.757 121.602 200.344 121.781 200.687C121.85 200.818 122.005 200.994 122.249 201.214L133.791 211.442C133.967 211.607 134.121 211.656 134.252 211.587C134.363 211.529 134.406 211.378 134.382 211.134L132.605 196.679C132.559 196.395 132.486 196.156 132.386 195.965C132.023 195.268 131.134 195.031 129.722 195.254C129.188 195.339 128.852 195.225 128.714 194.912C128.619 194.679 128.603 194.513 128.668 194.415C128.752 194.307 129.03 194.162 129.501 193.981C131.496 193.223 133.274 192.321 134.836 191.275C135.249 191.008 135.548 191.051 135.732 191.405ZM158.072 196.54C158.989 198.298 159.115 200.128 158.449 202.03C157.778 203.922 156.478 205.371 154.549 206.377C152.62 207.384 150.815 207.644 149.135 207.158C147.506 206.671 146.241 205.564 145.34 203.837C144.408 202.049 144.304 200.188 145.03 198.255C145.737 196.383 147.01 194.967 148.848 194.008C150.818 192.98 152.63 192.71 154.284 193.196C155.893 193.668 157.155 194.783 158.072 196.54ZM155.887 198.856C155.06 197.27 154.004 196.182 152.72 195.593C151.472 195.023 150.272 195.038 149.121 195.639C148.05 196.198 147.374 197.032 147.092 198.143C146.805 199.243 146.944 200.334 147.508 201.415C148.414 203.152 149.514 204.301 150.808 204.859C151.999 205.369 153.18 205.318 154.352 204.707C155.463 204.127 156.15 203.3 156.412 202.225C156.673 201.151 156.499 200.027 155.887 198.856ZM167.699 185.62C168.337 186.842 168.302 187.638 167.595 188.007C167.484 188.065 167.078 188.186 166.378 188.372C165.678 188.557 165.182 188.726 164.889 188.879C163.758 189.469 163.59 190.527 164.385 192.052L166.717 196.522C166.991 197.047 167.368 197.326 167.847 197.359C168.128 197.379 168.751 197.279 169.715 197.059C170.228 196.933 170.544 196.986 170.666 197.218C170.808 197.491 170.852 197.674 170.797 197.767C170.758 197.864 170.579 197.977 170.26 198.104C167.917 199.031 166.154 199.938 164.972 200.825C164.604 201.106 164.347 201.241 164.199 201.228C164.076 201.215 163.939 201.062 163.786 200.769C163.644 200.496 163.808 200.134 164.279 199.682C164.761 199.226 164.791 198.593 164.369 197.785L161.832 192.921C161.5 192.285 161.19 191.9 160.902 191.768C160.625 191.63 160.015 191.569 159.072 191.585L158.958 191.587C158.703 191.591 158.528 191.503 158.433 191.321C158.328 191.119 158.446 190.839 158.786 190.482C159.357 189.876 159.814 189.2 160.158 188.455C160.437 187.834 160.643 187.489 160.774 187.421C161.138 187.231 161.519 187.431 161.916 188.02C162.423 188.771 162.737 189.114 162.859 189.051C162.869 189.046 163.237 188.372 163.963 187.029C164.442 186.15 165.121 185.481 166 185.022C166.727 184.643 167.294 184.842 167.699 185.62ZM188.878 186.349C188.966 186.419 189.02 186.474 189.041 186.515C189.152 186.727 188.819 187.344 188.041 188.367C187.139 189.544 186.582 190.188 186.37 190.299C186.188 190.393 185.818 190.201 185.259 189.721C184.705 189.226 184.383 189.003 184.292 189.05C184.302 189.045 183.866 189.613 182.984 190.754C182.106 191.88 181.369 192.599 180.773 192.91C179.44 193.605 178.033 193.729 176.553 193.28C174.775 192.755 173.349 191.462 172.274 189.402C171.373 187.674 171.293 185.821 172.034 183.841C172.692 182.097 173.662 180.89 174.945 180.221C175.854 179.747 177.001 179.297 178.384 178.87C178.815 178.736 178.952 178.517 178.794 178.214L176.09 173.032C175.785 172.446 175.427 172.105 175.018 172.01C174.752 171.944 174.222 171.976 173.43 172.106C173.043 172.154 172.779 172.041 172.637 171.768C172.505 171.516 172.625 171.216 172.996 170.868C173.497 170.375 174.051 169.701 174.658 168.844C175.155 168.122 175.485 167.719 175.646 167.635C176.02 167.44 176.341 167.6 176.61 168.115C176.605 168.105 176.853 168.618 177.355 169.654C177.851 170.68 178.35 171.673 178.851 172.633L186.035 186.406C186.336 186.982 186.744 187.135 187.259 186.866C187.451 186.766 187.692 186.602 187.984 186.372C188.306 186.127 188.604 186.12 188.878 186.349ZM183.413 187.292L180.584 181.867C180.352 181.423 179.718 181.169 178.683 181.105C177.581 181.037 176.54 181.259 175.56 181.77C173.449 182.871 173.073 184.725 174.433 187.331C175.16 188.725 176.201 189.699 177.556 190.251C178.91 190.804 180.153 190.785 181.285 190.195C181.8 189.926 182.316 189.438 182.834 188.731C183.352 188.024 183.545 187.544 183.413 187.292ZM199.902 164.176C200.903 166.096 200.911 168.019 199.925 169.947C198.972 171.767 197.299 173.302 194.905 174.551C194.713 174.651 194.382 174.804 193.912 175.011C193.452 175.213 193.196 175.327 193.146 175.353C193.045 175.406 193.076 175.589 193.239 175.902L196.069 181.326C196.316 181.801 196.573 182.059 196.839 182.1C197.115 182.136 197.726 182.004 198.674 181.702C199.282 181.513 199.663 181.565 199.816 181.858C199.948 182.111 199.984 182.291 199.924 182.399C199.865 182.507 199.623 182.659 199.198 182.855C197.328 183.728 195.354 184.809 193.277 186.098C192.858 186.355 192.549 186.292 192.348 185.908C192.211 185.645 192.35 185.38 192.763 185.113C193.7 184.496 193.913 183.697 193.402 182.717L185.83 168.202C185.329 167.242 184.46 166.943 183.223 167.306C182.61 167.485 182.24 167.453 182.113 167.211C181.95 166.897 181.928 166.671 182.048 166.531C182.128 166.438 182.366 166.327 182.761 166.198C183.273 166.047 183.968 165.742 184.847 165.283C185.292 165.051 186.079 164.615 187.21 163.974C188.345 163.317 189.266 162.805 189.973 162.436C192.135 161.308 194.079 160.872 195.806 161.128C197.615 161.392 198.98 162.409 199.902 164.176ZM197.137 166.043C196.214 164.275 195.155 163.254 193.958 162.979C192.832 162.718 191.345 163.07 189.496 164.034C188.739 164.429 188.284 164.801 188.132 165.15C187.975 165.489 188.075 166.002 188.434 166.689L192.22 173.947C192.367 174.23 193.113 174.021 194.456 173.32C196.022 172.503 197.051 171.459 197.544 170.187C198.047 168.909 197.911 167.528 197.137 166.043ZM214.065 161.434C214.703 162.656 214.668 163.451 213.961 163.82C213.85 163.878 213.444 164 212.744 164.185C212.044 164.37 211.548 164.539 211.255 164.692C210.123 165.282 209.955 166.34 210.751 167.866L213.083 172.335C213.357 172.861 213.734 173.14 214.213 173.172C214.494 173.193 215.116 173.093 216.081 172.873C216.593 172.747 216.91 172.8 217.031 173.032C217.174 173.305 217.218 173.487 217.163 173.58C217.124 173.678 216.945 173.79 216.626 173.918C214.283 174.845 212.52 175.752 211.337 176.638C210.97 176.92 210.713 177.054 210.565 177.041C210.442 177.028 210.304 176.875 210.152 176.582C210.009 176.31 210.174 175.947 210.645 175.496C211.126 175.039 211.156 174.407 210.735 173.599L208.198 168.735C207.866 168.099 207.556 167.714 207.268 167.581C206.991 167.443 206.381 167.383 205.438 167.399L205.324 167.401C205.069 167.405 204.894 167.316 204.799 167.135C204.694 166.932 204.811 166.653 205.152 166.295C205.722 165.689 206.179 165.014 206.523 164.269C206.803 163.648 207.009 163.303 207.14 163.234C207.504 163.044 207.884 163.244 208.282 163.834C208.789 164.584 209.103 164.928 209.224 164.865C209.234 164.859 209.602 164.186 210.329 162.843C210.808 161.963 211.487 161.294 212.366 160.836C213.093 160.457 213.659 160.656 214.065 161.434ZM231.645 162.691C231.871 163.126 231.567 163.972 230.733 165.229C229.774 166.642 228.592 167.715 227.188 168.447C225.663 169.243 224.119 169.412 222.557 168.955C220.892 168.474 219.599 167.349 218.677 165.582C217.634 163.581 217.417 161.651 218.027 159.791C218.599 158.054 219.728 156.745 221.415 155.865C222.415 155.343 223.515 155.174 224.716 155.357C225.789 155.517 226.641 155.895 227.273 156.491C227.496 156.696 227.706 156.766 227.904 156.701C228.192 156.615 228.416 156.723 228.574 157.026C228.79 157.44 228.48 158.052 227.642 158.861L221.74 164.581C223.449 166.748 225.308 167.307 227.318 166.259C228.48 165.653 229.582 164.538 230.624 162.915C230.778 162.668 230.961 162.489 231.173 162.378C231.335 162.294 231.492 162.398 231.645 162.691ZM224.884 158.488C224.594 157.933 224.114 157.567 223.444 157.389C222.778 157.197 222.117 157.272 221.46 157.615C219.601 158.584 219.37 160.407 220.767 163.084L220.956 163.448L224.43 160.056C224.996 159.516 225.148 158.993 224.884 158.488ZM242.971 155.877C243.529 156.948 243.561 158.017 243.064 159.086C242.573 160.139 241.615 161.037 240.19 161.78C239.241 162.275 238.239 162.67 237.184 162.963C236.271 163.208 235.709 163.289 235.499 163.206C235.344 163.107 234.943 162.436 234.295 161.193C234.015 160.658 233.992 160.317 234.223 160.17C234.45 160.014 234.726 160.037 235.05 160.24C236.498 161.168 238.066 161.192 239.752 160.312C241.177 159.569 241.631 158.703 241.114 157.713C240.888 157.279 240.536 156.999 240.06 156.875C239.533 156.726 238.643 156.695 237.391 156.783C235.574 156.896 234.288 156.834 233.535 156.597C232.726 156.351 232.089 155.784 231.626 154.895C231.057 153.804 231.033 152.737 231.555 151.693C232.028 150.701 232.915 149.866 234.218 149.186C235.037 148.759 235.818 148.435 236.564 148.213C237.359 147.965 237.823 147.929 237.953 148.105C238.329 148.629 238.922 149.36 239.733 150.299C239.832 150.415 239.746 150.594 239.475 150.839C239.179 151.083 238.927 151.144 238.722 151.02C237.244 150.133 235.894 150.008 234.671 150.646C233.288 151.368 232.827 152.173 233.291 153.062C233.549 153.557 233.942 153.854 234.468 153.952C234.933 154.03 235.922 154.016 237.433 153.908C239.016 153.789 240.156 153.831 240.852 154.033C241.759 154.293 242.465 154.907 242.971 155.877ZM255.274 149.459C255.833 150.53 255.864 151.599 255.368 152.668C254.876 153.721 253.918 154.619 252.494 155.362C251.544 155.857 250.542 156.252 249.487 156.545C248.574 156.79 248.013 156.871 247.802 156.788C247.648 156.689 247.246 156.018 246.598 154.775C246.319 154.24 246.295 153.899 246.527 153.752C246.754 153.595 247.029 153.619 247.354 153.822C248.802 154.75 250.369 154.774 252.056 153.894C253.48 153.151 253.934 152.285 253.418 151.295C253.191 150.861 252.84 150.581 252.364 150.457C251.836 150.308 250.947 150.277 249.695 150.365C247.877 150.478 246.592 150.416 245.839 150.179C245.029 149.933 244.393 149.366 243.929 148.477C243.36 147.386 243.337 146.318 243.859 145.275C244.331 144.283 245.219 143.448 246.522 142.768C247.34 142.341 248.122 142.017 248.867 141.795C249.663 141.547 250.126 141.511 250.257 141.687C250.632 142.211 251.226 142.942 252.037 143.881C252.136 143.997 252.05 144.176 251.779 144.421C251.482 144.665 251.231 144.725 251.025 144.602C249.547 143.715 248.197 143.59 246.975 144.228C245.591 144.95 245.131 145.755 245.595 146.644C245.853 147.139 246.245 147.436 246.772 147.533C247.237 147.612 248.225 147.598 249.737 147.49C251.32 147.371 252.459 147.413 253.156 147.615C254.062 147.875 254.769 148.489 255.274 149.459Z" fill="black"/>
</svg>
